<?xml version="1.0" encoding="iso-8859-1"?>
<!-- Generator: Adobe Illustrator 19.0.0, SVG Export Plug-In . SVG Version: 6.00 Build 0)  -->
<svg version="1.1" id="Capa_1" xmlns="http://www.w3.org/2000/svg" xmlns:xlink="http://www.w3.org/1999/xlink" x="0px" y="0px"
	 viewBox="0 0 512 512" style="enable-background:new 0 0 512 512;" xml:space="preserve">
<path style="fill:#F2F2F2;" d="M407,512H105C47.103,512,0,464.897,0,407V105C0,47.103,47.103,0,105,0h302
	c57.897,0,105,47.103,105,105v302C512,464.897,464.897,512,407,512z"/>
<path style="fill:#E5E5E5;" d="M407,0H256v512h151c57.897,0,105-47.103,105-105V105C512,47.103,464.897,0,407,0z"/>
<path style="fill:#00C3FF;" d="M256,452c-108.075,0-196-87.925-196-196S147.925,60,256,60s196,87.925,196,196S364.075,452,256,452z"
	/>
<path style="fill:#00AAF0;" d="M256,60v392c108.075,0,196-87.925,196-196S364.075,60,256,60z"/>
<g>
	<polygon style="fill:#FFFFFF;" points="172.268,339.732 235.067,235.067 339.732,172.268 276.933,276.933 	"/>
	<path style="fill:#FFFFFF;" d="M138.297,139.063l18.794,22.397l22.98-19.284l-18.804-22.41
		C153.038,125.505,145.348,131.965,138.297,139.063z"/>
	<path style="fill:#FFFFFF;" d="M130.721,200.99l15-25.98l-25.339-14.629c-5.759,8.144-10.798,16.829-15.036,25.959L130.721,200.99z
		"/>
	<path style="fill:#FFFFFF;" d="M119.462,247.156l5.209-29.544L95.79,212.52c-2.592,9.538-4.353,19.413-5.199,29.545
		L119.462,247.156z"/>
	<path style="fill:#FFFFFF;" d="M271,90.685C266.057,90.24,261.057,90,256,90s-10.057,0.24-15,0.685V120h30V90.685z"/>
</g>
<g>
	<path style="fill:#F2F2F2;" d="M406.655,186.34c-4.239-9.13-9.277-17.816-15.036-25.959L366.28,175.01l15,25.98L406.655,186.34z"/>
	<path style="fill:#F2F2F2;" d="M350.733,119.766l-18.804,22.41l22.98,19.284l18.794-22.397
		C366.652,131.965,358.962,125.505,350.733,119.766z"/>
</g>
<path style="fill:#FFFFFF;" d="M124.671,294.388l-5.209-29.544l-28.872,5.091c0.846,10.132,2.608,20.007,5.199,29.545
	L124.671,294.388z"/>
<path style="fill:#F2F2F2;" d="M326.631,105.799c-8.985-4.242-18.406-7.702-28.181-10.29l-10.031,27.562l28.191,10.261
	L326.631,105.799z"/>
<path style="fill:#FFFFFF;" d="M195.39,133.332l28.191-10.261L213.55,95.51c-9.775,2.588-19.197,6.047-28.181,10.29L195.39,133.332z
	"/>
<g>
	<path style="fill:#F2F2F2;" d="M392.538,264.844l-5.209,29.544l28.881,5.092c2.592-9.538,4.353-19.413,5.199-29.545
		L392.538,264.844z"/>
	<path style="fill:#F2F2F2;" d="M381.279,311.01l-15,25.98l25.339,14.629c5.759-8.144,10.798-16.829,15.036-25.959L381.279,311.01z"
		/>
</g>
<path style="fill:#FFFFFF;" d="M145.721,336.99l-15-25.98l-25.376,14.65c4.239,9.13,9.277,17.816,15.036,25.959L145.721,336.99z"/>
<g>
	<path style="fill:#F2F2F2;" d="M387.329,217.612l5.209,29.544l28.872-5.091c-0.846-10.132-2.608-20.007-5.199-29.545
		L387.329,217.612z"/>
	<path style="fill:#F2F2F2;" d="M373.703,372.938l-18.794-22.397l-22.98,19.284l18.804,22.41
		C358.962,386.495,366.652,380.035,373.703,372.938z"/>
	<path style="fill:#F2F2F2;" d="M316.61,378.668l-28.191,10.261l10.031,27.562c9.775-2.588,19.197-6.047,28.181-10.29
		L316.61,378.668z"/>
</g>
<g>
	<path style="fill:#FFFFFF;" d="M223.581,388.929l-28.191-10.261l-10.021,27.533c8.985,4.242,18.406,7.702,28.181,10.29
		L223.581,388.929z"/>
	<path style="fill:#FFFFFF;" d="M161.267,392.234l18.804-22.41l-22.98-19.284l-18.794,22.397
		C145.348,380.035,153.038,386.495,161.267,392.234z"/>
	<path style="fill:#FFFFFF;" d="M271,421.315V392h-30v29.315c4.943,0.445,9.943,0.685,15,0.685S266.057,421.76,271,421.315z"/>
</g>
<g>
	<path style="fill:#F2F2F2;" d="M256,422c5.057,0,10.057-0.24,15-0.685V392h-15V422z"/>
	<path style="fill:#F2F2F2;" d="M256,90v30h15V90.685C266.057,90.24,261.057,90,256,90z"/>
</g>
<polygon style="fill:#DD2E44;" points="235.067,235.067 339.732,172.268 276.933,276.933 "/>
<g>
</g>
<g>
</g>
<g>
</g>
<g>
</g>
<g>
</g>
<g>
</g>
<g>
</g>
<g>
</g>
<g>
</g>
<g>
</g>
<g>
</g>
<g>
</g>
<g>
</g>
<g>
</g>
<g>
</g>
</svg>
