<?xml version="1.0" encoding="iso-8859-1"?>
<!-- Generator: Adobe Illustrator 19.0.0, SVG Export Plug-In . SVG Version: 6.00 Build 0)  -->
<svg version="1.1" id="Capa_1" xmlns="http://www.w3.org/2000/svg" xmlns:xlink="http://www.w3.org/1999/xlink" x="0px" y="0px"
	 viewBox="0 0 512 512" style="enable-background:new 0 0 512 512;" xml:space="preserve">
<path style="fill:#EA596E;" d="M407,512H105C47.103,512,0,464.897,0,407V105C0,47.103,47.103,0,105,0h302
	c57.897,0,105,47.103,105,105v302C512,464.897,464.897,512,407,512z"/>
<path style="fill:#DD2E44;" d="M407,0H256v512h151c57.897,0,105-47.103,105-105V105C512,47.103,464.897,0,407,0z"/>
<path style="fill:#F2F2F2;" d="M121,111v30H91v215c0,24.813,20.187,45,45,45h240c24.813,0,45-20.187,45-45V111H121z"/>
<path style="fill:#E5E5E5;" d="M256,111v290h120c24.813,0,45-20.187,45-45V111H256z"/>
<g>
	<polygon style="fill:#EA596E;" points="311,229.787 311,171 252.213,171 	"/>
	<polygon style="fill:#EA596E;" points="209.787,171 181,171 181,199.787 282.212,301 311,301 311,272.213 	"/>
	<polygon style="fill:#EA596E;" points="181,242.213 181,301 239.787,301 	"/>
</g>
<path style="fill:#E5E5E5;" d="M121,141H91v215c0,19.555,12.541,36.228,30,42.42V141z"/>
<g>
	<polygon style="fill:#DD2E44;" points="256,274.788 282.212,301 311,301 311,272.213 256,217.213 	"/>
	<polygon style="fill:#DD2E44;" points="256,171 256,174.787 311,229.787 311,171 	"/>
</g>
<g>
</g>
<g>
</g>
<g>
</g>
<g>
</g>
<g>
</g>
<g>
</g>
<g>
</g>
<g>
</g>
<g>
</g>
<g>
</g>
<g>
</g>
<g>
</g>
<g>
</g>
<g>
</g>
<g>
</g>
</svg>
