<?xml version="1.0" encoding="iso-8859-1"?>
<!-- Generator: Adobe Illustrator 19.0.0, SVG Export Plug-In . SVG Version: 6.00 Build 0)  -->
<svg version="1.1" id="Capa_1" xmlns="http://www.w3.org/2000/svg" xmlns:xlink="http://www.w3.org/1999/xlink" x="0px" y="0px"
	 viewBox="0 0 512 512" style="enable-background:new 0 0 512 512;" xml:space="preserve">
<path style="fill:#F2F2F2;" d="M407,512H105C47.103,512,0,464.897,0,407V105C0,47.103,47.103,0,105,0h302
	c57.897,0,105,47.103,105,105v302C512,464.897,464.897,512,407,512z"/>
<path style="fill:#E5E5E5;" d="M407,0H256v512h151c57.897,0,105-47.103,105-105V105C512,47.103,464.897,0,407,0z"/>
<path style="fill:#EA596E;" d="M321,284.646C260.885,246.316,211,207.66,211,146c0-33.137,26.863-60,60-60
	c20.875,0,39.252,10.666,50,26.839C331.748,96.666,350.125,86,371,86c33.137,0,60,26.863,60,60
	C431,207.66,381.115,246.316,321,284.646z"/>
<path style="fill:#DD2E44;" d="M371,86c-20.875,0-39.252,10.666-50,26.839C310.252,96.666,291.875,86,271,86
	c-5.18,0-10.206,0.656-15,1.891V236.75c18.291,17.002,40.816,32.476,65,47.896C381.115,246.316,431,207.66,431,146
	C431,112.863,404.137,86,371,86z"/>
<g>
</g>
<g>
</g>
<g>
</g>
<g>
</g>
<g>
</g>
<g>
</g>
<g>
</g>
<g>
</g>
<g>
</g>
<g>
</g>
<g>
</g>
<g>
</g>
<g>
</g>
<g>
</g>
<g>
</g>
</svg>
