<?xml version="1.0" encoding="iso-8859-1"?>
<!-- Generator: Adobe Illustrator 19.0.0, SVG Export Plug-In . SVG Version: 6.00 Build 0)  -->
<svg version="1.1" id="Capa_1" xmlns="http://www.w3.org/2000/svg" xmlns:xlink="http://www.w3.org/1999/xlink" x="0px" y="0px"
	 viewBox="0 0 512 512" style="enable-background:new 0 0 512 512;" xml:space="preserve">
<path style="fill:#87E694;" d="M407,512H105C47.103,512,0,464.897,0,407V105C0,47.103,47.103,0,105,0h302
	c57.897,0,105,47.103,105,105v302C512,464.897,464.897,512,407,512z"/>
<path style="fill:#66CC70;" d="M407,0H256v512h151c57.897,0,105-47.103,105-105V105C512,47.103,464.897,0,407,0z"/>
<path style="fill:#FFFFFF;" d="M350.932,315.787c-10.079-6.048-22.981-4.459-31.292,3.852l0,0
	c-11.716,11.716-30.711,11.716-42.426,0l-84.853-84.853c-11.716-11.716-11.716-30.711,0-42.426l0,0
	c8.311-8.311,9.9-21.213,3.852-31.292l-18.957-31.596c-7.279-12.131-23.013-16.064-35.144-8.786l-13.39,8.034
	c-31.242,31.242,0.416,113.553,70.711,183.848s152.606,101.953,183.848,70.711l8.034-13.39c7.278-12.131,3.345-27.866-8.786-35.144
	L350.932,315.787z"/>
<path style="fill:#F2F2F2;" d="M382.527,334.745l-31.596-18.958c-10.079-6.047-22.981-4.459-31.292,3.853l0,0
	c-11.716,11.716-30.711,11.716-42.426,0L256,298.426v60.98c53.337,35.719,104.219,46.933,127.279,23.873l8.034-13.39
	C398.592,357.758,394.658,342.023,382.527,334.745z"/>
<g>
</g>
<g>
</g>
<g>
</g>
<g>
</g>
<g>
</g>
<g>
</g>
<g>
</g>
<g>
</g>
<g>
</g>
<g>
</g>
<g>
</g>
<g>
</g>
<g>
</g>
<g>
</g>
<g>
</g>
</svg>
