<?xml version="1.0" encoding="iso-8859-1"?>
<!-- Generator: Adobe Illustrator 19.0.0, SVG Export Plug-In . SVG Version: 6.00 Build 0)  -->
<svg version="1.1" id="Capa_1" xmlns="http://www.w3.org/2000/svg" xmlns:xlink="http://www.w3.org/1999/xlink" x="0px" y="0px"
	 viewBox="0 0 512 512" style="enable-background:new 0 0 512 512;" xml:space="preserve">
<path style="fill:#FFDC40;" d="M407,512H105C47.103,512,0,464.897,0,407V105C0,47.103,47.103,0,105,0h302
	c57.897,0,105,47.103,105,105v302C512,464.897,464.897,512,407,512z"/>
<path style="fill:#FFAB15;" d="M407,0H256v512h151c57.897,0,105-47.103,105-105V105C512,47.103,464.897,0,407,0z"/>
<circle style="fill:#F2F2F2;" cx="331" cy="136" r="30"/>
<g>
	<circle style="fill:#FFFFFF;" cx="181" cy="136" r="30"/>
	<polygon style="fill:#FFFFFF;" points="436,216 436,186 76,186 76,216 151,216 151,263.907 114.573,391.894 143.427,400.106 
		181,268.093 218.573,400.106 247.427,391.894 211,263.907 211,216 301,216 301,263.907 264.573,391.894 293.427,400.106 
		331,268.093 368.573,400.106 397.427,391.894 361,263.907 361,216 	"/>
</g>
<g>
	<circle style="fill:#F2F2F2;" cx="181" cy="136" r="30"/>
	<polygon style="fill:#F2F2F2;" points="436,216 436,186 256,186 256,216 301,216 301,263.907 264.573,391.894 293.427,400.106 
		331,268.093 368.573,400.106 397.427,391.894 361,263.907 361,216 	"/>
</g>
<g>
</g>
<g>
</g>
<g>
</g>
<g>
</g>
<g>
</g>
<g>
</g>
<g>
</g>
<g>
</g>
<g>
</g>
<g>
</g>
<g>
</g>
<g>
</g>
<g>
</g>
<g>
</g>
<g>
</g>
</svg>
