<?xml version="1.0" encoding="iso-8859-1"?>
<!-- Generator: Adobe Illustrator 19.0.0, SVG Export Plug-In . SVG Version: 6.00 Build 0)  -->
<svg version="1.1" id="Capa_1" xmlns="http://www.w3.org/2000/svg" xmlns:xlink="http://www.w3.org/1999/xlink" x="0px" y="0px"
	 viewBox="0 0 512 512" style="enable-background:new 0 0 512 512;" xml:space="preserve">
<path style="fill:#FFAB15;" d="M407,512H105C47.103,512,0,464.897,0,407V105C0,47.103,47.103,0,105,0h302
	c57.897,0,105,47.103,105,105v302C512,464.897,464.897,512,407,512z"/>
<path style="fill:#FF9400;" d="M407,0H256v512h151c57.897,0,105-47.103,105-105V105C512,47.103,464.897,0,407,0z"/>
<path style="fill:#FFFFFF;" d="M106,350.011v-200C123.481,135.044,146.183,126,171,126c27.261,0,51.963,10.918,70,28.608v200.008
	C222.964,336.922,198.263,326,171,326C146.183,326,123.481,335.044,106,350.011z"/>
<path style="fill:#F2F2F2;" d="M406,350.011C388.519,335.044,365.817,326,341,326c-27.263,0-51.964,10.922-70,28.616V154.608
	C289.037,136.918,313.739,126,341,126c24.817,0,47.519,9.044,65,24.011V350.011z"/>
<g>
</g>
<g>
</g>
<g>
</g>
<g>
</g>
<g>
</g>
<g>
</g>
<g>
</g>
<g>
</g>
<g>
</g>
<g>
</g>
<g>
</g>
<g>
</g>
<g>
</g>
<g>
</g>
<g>
</g>
</svg>
