<?xml version="1.0" encoding="iso-8859-1"?>
<!-- Generator: Adobe Illustrator 19.0.0, SVG Export Plug-In . SVG Version: 6.00 Build 0)  -->
<svg version="1.1" id="Capa_1" xmlns="http://www.w3.org/2000/svg" xmlns:xlink="http://www.w3.org/1999/xlink" x="0px" y="0px"
	 viewBox="0 0 512 512" style="enable-background:new 0 0 512 512;" xml:space="preserve">
<path style="fill:#00C3FF;" d="M407,512H105C47.103,512,0,464.897,0,407V105C0,47.103,47.103,0,105,0h302
	c57.897,0,105,47.103,105,105v302C512,464.897,464.897,512,407,512z"/>
<path style="fill:#00AAF0;" d="M407,0H256v512h151c57.897,0,105-47.103,105-105V105C512,47.103,464.897,0,407,0z"/>
<path style="fill:#F2F2F2;" d="M411,161v170c0,2.542-0.638,4.935-1.754,7.033l-92.075-92.074l92.047-92.048
	C410.354,156.022,411,158.435,411,161z"/>
<g>
	<path style="fill:#FFFFFF;" d="M101,331V161c0-2.542,0.638-4.935,1.754-7.033L194.787,246l-92.033,92.033
		C101.638,335.935,101,333.542,101,331z"/>
	<polygon style="fill:#FFFFFF;" points="255.958,264.745 137.213,146 374.704,146 	"/>
	<polygon style="fill:#FFFFFF;" points="216,267.213 255.958,307.172 295.958,267.172 374.787,346 137.213,346 	"/>
</g>
<g>
	<polygon style="fill:#F2F2F2;" points="295.958,267.172 256,307.13 256,346 374.787,346 	"/>
	<polygon style="fill:#F2F2F2;" points="256,264.704 374.704,146 256,146 	"/>
</g>
<g>
</g>
<g>
</g>
<g>
</g>
<g>
</g>
<g>
</g>
<g>
</g>
<g>
</g>
<g>
</g>
<g>
</g>
<g>
</g>
<g>
</g>
<g>
</g>
<g>
</g>
<g>
</g>
<g>
</g>
</svg>
