<?xml version="1.0" encoding="iso-8859-1"?>
<!-- Generator: Adobe Illustrator 19.0.0, SVG Export Plug-In . SVG Version: 6.00 Build 0)  -->
<svg version="1.1" id="Capa_1" xmlns="http://www.w3.org/2000/svg" xmlns:xlink="http://www.w3.org/1999/xlink" x="0px" y="0px"
	 viewBox="0 0 512 512" style="enable-background:new 0 0 512 512;" xml:space="preserve">
<path style="fill:#F2F2F2;" d="M407,512H105C47.103,512,0,464.897,0,407V105C0,47.103,47.103,0,105,0h302
	c57.897,0,105,47.103,105,105v302C512,464.897,464.897,512,407,512z"/>
<path style="fill:#E5E5E5;" d="M407,0H256v512h151c57.897,0,105-47.103,105-105V105C512,47.103,464.897,0,407,0z"/>
<path style="fill:#57565C;" d="M386,90v332c0,8.284-6.716,15-15,15H141c-8.284,0-15-6.716-15-15V90c0-8.284,6.716-15,15-15h230
	C379.284,75,386,81.716,386,90z"/>
<path style="fill:#3E3D42;" d="M371,75H256v362h115c8.284,0,15-6.716,15-15V90C386,81.716,379.284,75,371,75z"/>
<circle style="fill:#FFAB15;" cx="326" cy="372" r="20"/>
<g>
	<circle style="fill:#F2F2F2;" cx="186" cy="302" r="20"/>
	<circle style="fill:#F2F2F2;" cx="256" cy="302" r="20"/>
</g>
<circle style="fill:#FFAB15;" cx="326" cy="302" r="20"/>
<g>
	<circle style="fill:#F2F2F2;" cx="186" cy="232" r="20"/>
	<circle style="fill:#F2F2F2;" cx="256" cy="232" r="20"/>
</g>
<circle style="fill:#FFAB15;" cx="326" cy="232" r="20"/>
<path style="fill:#F2F2F2;" d="M256,352h-70c-11.046,0-20,8.954-20,20s8.954,20,20,20h70c11.046,0,20-8.954,20-20
	S267.046,352,256,352z"/>
<rect x="168" y="120" style="fill:#6C6B72;" width="178" height="60"/>
<rect x="256" y="120" style="fill:#57565C;" width="90" height="60"/>
<g>
	<path style="fill:#E5E5E5;" d="M256,252c11.046,0,20-8.954,20-20s-8.954-20-20-20V252z"/>
	<path style="fill:#E5E5E5;" d="M256,282v40c11.046,0,20-8.954,20-20S267.046,282,256,282z"/>
</g>
<g>
</g>
<g>
</g>
<g>
</g>
<g>
</g>
<g>
</g>
<g>
</g>
<g>
</g>
<g>
</g>
<g>
</g>
<g>
</g>
<g>
</g>
<g>
</g>
<g>
</g>
<g>
</g>
<g>
</g>
</svg>
