<?xml version="1.0" encoding="iso-8859-1"?>
<!-- Generator: Adobe Illustrator 19.0.0, SVG Export Plug-In . SVG Version: 6.00 Build 0)  -->
<svg version="1.1" id="Capa_1" xmlns="http://www.w3.org/2000/svg" xmlns:xlink="http://www.w3.org/1999/xlink" x="0px" y="0px"
	 viewBox="0 0 512 512" style="enable-background:new 0 0 512 512;" xml:space="preserve">
<path style="fill:#F2F2F2;" d="M407,512H105C47.103,512,0,464.897,0,407V105C0,47.103,47.103,0,105,0h302
	c57.897,0,105,47.103,105,105v302C512,464.897,464.897,512,407,512z"/>
<path style="fill:#E5E5E5;" d="M407,0H256v512h151c57.897,0,105-47.103,105-105V105C512,47.103,464.897,0,407,0z"/>
<g>
	<rect x="211" y="60" style="fill:#57565C;" width="30" height="392"/>
	<rect x="151" y="140" style="fill:#57565C;" width="30" height="232"/>
</g>
<g>
	<rect x="331" y="160" style="fill:#3E3D42;" width="30" height="192"/>
	<rect x="271" y="220" style="fill:#3E3D42;" width="30" height="72"/>
	<rect x="391" y="210" style="fill:#3E3D42;" width="30" height="92"/>
	<rect x="451" y="240" style="fill:#3E3D42;" width="30" height="32"/>
</g>
<g>
	<rect x="91" y="220" style="fill:#57565C;" width="30" height="72"/>
	<rect x="31" y="240" style="fill:#57565C;" width="30" height="32"/>
</g>
<g>
</g>
<g>
</g>
<g>
</g>
<g>
</g>
<g>
</g>
<g>
</g>
<g>
</g>
<g>
</g>
<g>
</g>
<g>
</g>
<g>
</g>
<g>
</g>
<g>
</g>
<g>
</g>
<g>
</g>
</svg>
