<?xml version="1.0" encoding="iso-8859-1"?>
<!-- Generator: Adobe Illustrator 19.0.0, SVG Export Plug-In . SVG Version: 6.00 Build 0)  -->
<svg version="1.1" id="Capa_1" xmlns="http://www.w3.org/2000/svg" xmlns:xlink="http://www.w3.org/1999/xlink" x="0px" y="0px"
	 viewBox="0 0 512 512" style="enable-background:new 0 0 512 512;" xml:space="preserve">
<path style="fill:#FFDC40;" d="M407,512H105C47.103,512,0,464.897,0,407V105C0,47.103,47.103,0,105,0h302
	c57.897,0,105,47.103,105,105v302C512,464.897,464.897,512,407,512z"/>
<path style="fill:#FFAB15;" d="M407,0H256v512h151c57.897,0,105-47.103,105-105V105C512,47.103,464.897,0,407,0z"/>
<path style="fill:#FFFFFF;" d="M286,418h-60v-30h60V418z M328.491,285.73c-20.699,18.149-35.037,42.456-41.714,69.163L286,358h-15
	V247h35v-30H206v30h35v111h-15l-0.777-3.106c-6.793-27.172-21.943-51.366-42.766-70.098C160.076,264.662,146,235.476,146,203
	c0-60.875,50.195-110.574,111.068-109.995C317.327,93.578,366,142.604,366,203C366,235.981,351.483,265.57,328.491,285.73z"/>
<g>
	<rect x="256" y="388" style="fill:#F2F2F2;" width="30" height="30"/>
	<path style="fill:#F2F2F2;" d="M257.068,93.005c-0.357-0.003-0.711,0.003-1.068,0.003V217h50v30h-35v111h15l0.777-3.107
		c6.677-26.707,21.016-51.014,41.714-69.163C351.483,265.57,366,235.981,366,203C366,142.604,317.327,93.578,257.068,93.005z"/>
</g>
<g>
</g>
<g>
</g>
<g>
</g>
<g>
</g>
<g>
</g>
<g>
</g>
<g>
</g>
<g>
</g>
<g>
</g>
<g>
</g>
<g>
</g>
<g>
</g>
<g>
</g>
<g>
</g>
<g>
</g>
</svg>
