<?xml version="1.0" encoding="iso-8859-1"?>
<!-- Generator: Adobe Illustrator 19.0.0, SVG Export Plug-In . SVG Version: 6.00 Build 0)  -->
<svg version="1.1" id="Capa_1" xmlns="http://www.w3.org/2000/svg" xmlns:xlink="http://www.w3.org/1999/xlink" x="0px" y="0px"
	 viewBox="0 0 512 512" style="enable-background:new 0 0 512 512;" xml:space="preserve">
<path style="fill:#DD86F2;" d="M407,512H105C47.103,512,0,464.897,0,407V105C0,47.103,47.103,0,105,0h302
	c57.897,0,105,47.103,105,105v302C512,464.897,464.897,512,407,512z"/>
<path style="fill:#CD67E5;" d="M407,0H256v512h151c57.897,0,105-47.103,105-105V105C512,47.103,464.897,0,407,0z"/>
<path style="fill:#FFFFFF;" d="M308.558,340.537l-9.273,74.185C297.408,429.734,284.646,441,269.517,441h-27.033
	c-15.13,0-27.892-11.266-29.768-26.279l-9.273-74.185C199.49,308.923,224.14,281,256,281l0,0c-24.813,0-45-20.187-45-45
	s20.187-45,45-45s45,20.187,45,45s-20.187,45-45,45l0,0C287.86,281,312.51,308.923,308.558,340.537z M256,161
	c-46.869,0-85,38.131-85,85c0,16.893,4.974,32.637,13.505,45.883c-6.132,10.42-9.908,22.057-11.076,34.072
	C153.368,305.245,141,277.042,141,246c0-63.411,51.589-115,115-115s115,51.589,115,115c0,31.042-12.368,59.245-32.428,79.956
	c-1.168-12.016-4.945-23.652-11.076-34.072C336.026,278.637,341,262.893,341,246C341,199.131,302.869,161,256,161z M330.838,404.168
	l4.617-36.938C374.901,341.289,401,296.639,401,246c0-79.953-65.047-145-145-145s-145,65.047-145,145
	c0,50.639,26.099,95.289,65.545,121.23l4.617,36.938C122.004,376.063,81,315.734,81,246c0-96.495,78.505-175,175-175
	s175,78.505,175,175C431,315.734,389.996,376.063,330.838,404.168z"/>
<g>
	<path style="fill:#F2F2F2;" d="M256,281L256,281v160h13.517c15.13,0,27.892-11.266,29.768-26.279l9.273-74.185
		C312.51,308.923,287.86,281,256,281z"/>
	<path style="fill:#F2F2F2;" d="M301,236c0-24.813-20.187-45-45-45v90C280.813,281,301,260.813,301,236z"/>
	<path style="fill:#F2F2F2;" d="M256,71v30c79.953,0,145,65.047,145,145c0,50.639-26.099,95.289-65.545,121.23l-4.617,36.938
		C389.996,376.063,431,315.734,431,246C431,149.505,352.495,71,256,71z"/>
	<path style="fill:#F2F2F2;" d="M338.572,325.956C358.632,305.245,371,277.042,371,246c0-63.411-51.589-115-115-115v30
		c46.869,0,85,38.131,85,85c0,16.893-4.974,32.637-13.505,45.883C333.627,302.304,337.404,313.94,338.572,325.956z"/>
</g>
<g>
</g>
<g>
</g>
<g>
</g>
<g>
</g>
<g>
</g>
<g>
</g>
<g>
</g>
<g>
</g>
<g>
</g>
<g>
</g>
<g>
</g>
<g>
</g>
<g>
</g>
<g>
</g>
<g>
</g>
</svg>
