<?xml version="1.0" encoding="iso-8859-1"?>
<!-- Generator: Adobe Illustrator 19.0.0, SVG Export Plug-In . SVG Version: 6.00 Build 0)  -->
<svg version="1.1" id="Capa_1" xmlns="http://www.w3.org/2000/svg" xmlns:xlink="http://www.w3.org/1999/xlink" x="0px" y="0px"
	 viewBox="0 0 512 512" style="enable-background:new 0 0 512 512;" xml:space="preserve">
<path style="fill:#57565C;" d="M407,512H105C47.103,512,0,464.897,0,407V105C0,47.103,47.103,0,105,0h302
	c57.897,0,105,47.103,105,105v302C512,464.897,464.897,512,407,512z"/>
<path style="fill:#3E3D42;" d="M407,0H256v512h151c57.897,0,105-47.103,105-105V105C512,47.103,464.897,0,407,0z"/>
<g>
	<path style="fill:#F2F2F2;" d="M166,346h-30c-8.284,0-15-6.716-15-15V181c0-8.284,6.716-15,15-15h30c8.284,0,15,6.716,15,15v150
		C181,339.284,174.284,346,166,346z"/>
	<path style="fill:#F2F2F2;" d="M261,89c-24.744,0-49.345,6.515-71.143,18.842c-13.13,7.424-25.276,16.965-35.951,28.158H166
		c9.003,0,17.39,2.668,24.432,7.24C210.843,127.561,235.219,119,261,119c68.374,0,124,61.458,124,137s-55.626,137-124,137
		c-25.66,0-50.071-8.586-70.524-24.268C183.425,373.321,175.022,376,166,376h-12.161c28.546,30.117,66.534,47,107.161,47
		c84.916,0,154-74.916,154-167S345.916,89,261,89z"/>
</g>
<path style="fill:#E5E5E5;" d="M261,89c-1.668,0-3.334,0.035-5,0.094v30.017c1.661-0.072,3.327-0.111,5-0.111
	c68.374,0,124,61.458,124,137s-55.626,137-124,137c-1.672,0-3.339-0.041-5-0.113v30.017c1.663,0.057,3.328,0.096,5,0.096
	c84.916,0,154-74.916,154-167S345.916,89,261,89z"/>
<g>
</g>
<g>
</g>
<g>
</g>
<g>
</g>
<g>
</g>
<g>
</g>
<g>
</g>
<g>
</g>
<g>
</g>
<g>
</g>
<g>
</g>
<g>
</g>
<g>
</g>
<g>
</g>
<g>
</g>
</svg>
