<?xml version="1.0" encoding="iso-8859-1"?>
<!-- Generator: Adobe Illustrator 19.0.0, SVG Export Plug-In . SVG Version: 6.00 Build 0)  -->
<svg version="1.1" id="Capa_1" xmlns="http://www.w3.org/2000/svg" xmlns:xlink="http://www.w3.org/1999/xlink" x="0px" y="0px"
	 viewBox="0 0 512 512" style="enable-background:new 0 0 512 512;" xml:space="preserve">
<path style="fill:#F2F2F2;" d="M407,512H105C47.103,512,0,464.897,0,407V105C0,47.103,47.103,0,105,0h302
	c57.897,0,105,47.103,105,105v302C512,464.897,464.897,512,407,512z"/>
<path style="fill:#E5E5E5;" d="M407,0H256v512h151c57.897,0,105-47.103,105-105V105C512,47.103,464.897,0,407,0z"/>
<polygon style="fill:#FF9400;" points="396,187.889 396,121 356,121 356,156.165 256,76.855 67.947,226 111,226 111,411 401,411 
	401,226 444.053,226 "/>
<polygon style="fill:#FF6849;" points="396,187.889 396,121 356,121 356,156.165 256,76.855 256,411 401,411 401,226 444.053,226 
	"/>
<polygon style="fill:#FFAB15;" points="141,381 371,381 371,206.352 256,115.145 141,206.352 "/>
<polygon style="fill:#FF9400;" points="256,115.145 256,381 371,381 371,206.352 "/>
<path style="fill:#FFDC40;" d="M341,351H171V220.849l85-67.414l85,67.414V351z"/>
<polygon style="fill:#FFAB15;" points="256,153.435 256,351 341,351 341,220.849 "/>
<polygon style="fill:#FFEA84;" points="201,321 311,321 311,235.346 256,191.725 201,235.346 "/>
<polygon style="fill:#FFDC40;" points="256,191.725 256,321 311,321 311,235.346 "/>
<g>
</g>
<g>
</g>
<g>
</g>
<g>
</g>
<g>
</g>
<g>
</g>
<g>
</g>
<g>
</g>
<g>
</g>
<g>
</g>
<g>
</g>
<g>
</g>
<g>
</g>
<g>
</g>
<g>
</g>
</svg>
