<?xml version="1.0" encoding="iso-8859-1"?>
<!-- Generator: Adobe Illustrator 19.0.0, SVG Export Plug-In . SVG Version: 6.00 Build 0)  -->
<svg version="1.1" id="Capa_1" xmlns="http://www.w3.org/2000/svg" xmlns:xlink="http://www.w3.org/1999/xlink" x="0px" y="0px"
	 viewBox="0 0 512 512" style="enable-background:new 0 0 512 512;" xml:space="preserve">
<path style="fill:#F2F2F2;" d="M407,512H105C47.103,512,0,464.897,0,407V105C0,47.103,47.103,0,105,0h302
	c57.897,0,105,47.103,105,105v302C512,464.897,464.897,512,407,512z"/>
<path style="fill:#B2B2B2;" d="M512,105C512,47.103,464.897,0,407,0h-16.667v153.435H512V105z"/>
<path style="fill:#66CC70;" d="M390.333,356.333V512H407c57.897,0,105-47.103,105-105v-50.667H390.333z"/>
<rect x="390.33" y="185.67" style="fill:#FFAB15;" width="121.67" height="198.33"/>
<rect x="390.33" y="128" style="fill:#00AAF0;" width="121.67" height="128"/>
<rect x="256" style="fill:#E5E5E5;" width="151" height="512"/>
<g>
	<path style="fill:#CCCCCC;" d="M211,105c-83.262,0-151,67.738-151,151s67.738,151,151,151s151-67.738,151-151S294.262,105,211,105z
		 M281,354.646V324c0-16.568-13.431-30-30-30h-40h-40c-16.569,0-30,13.432-30,30v30.646C110.156,332.695,90,296.657,90,256
		c0-66.72,54.28-121,121-121s121,54.28,121,121C332,296.657,311.844,332.695,281,354.646z"/>
	<circle style="fill:#CCCCCC;" cx="211" cy="249" r="45"/>
</g>
<path style="fill:#B2B2B2;" d="M256,111.848v31.835c44.5,17.893,76,61.493,76,112.317c0,40.657-20.156,76.695-51,98.646V324
	c0-14.864-10.813-27.196-25-29.577v105.729C317.353,380.959,362,323.596,362,256S317.353,131.041,256,111.848z"/>
<g>
</g>
<g>
</g>
<g>
</g>
<g>
</g>
<g>
</g>
<g>
</g>
<g>
</g>
<g>
</g>
<g>
</g>
<g>
</g>
<g>
</g>
<g>
</g>
<g>
</g>
<g>
</g>
<g>
</g>
</svg>
