<?xml version="1.0" encoding="iso-8859-1"?>
<!-- Generator: Adobe Illustrator 19.0.0, SVG Export Plug-In . SVG Version: 6.00 Build 0)  -->
<svg version="1.1" id="Capa_1" xmlns="http://www.w3.org/2000/svg" xmlns:xlink="http://www.w3.org/1999/xlink" x="0px" y="0px"
	 viewBox="0 0 512 512" style="enable-background:new 0 0 512 512;" xml:space="preserve">
<path style="fill:#F2F2F2;" d="M407,512H105C47.103,512,0,464.897,0,407V105C0,47.103,47.103,0,105,0h302
	c57.897,0,105,47.103,105,105v302C512,464.897,464.897,512,407,512z"/>
<path style="fill:#E5E5E5;" d="M407,0H256v512h151c57.897,0,105-47.103,105-105V105C512,47.103,464.897,0,407,0z"/>
<path style="fill:#00C3FF;" d="M256,75c-99.964,0-181,81.036-181,181c0,99.963,81.036,181,181,181s181-81.037,181-181
	C437,156.036,355.964,75,256,75z"/>
<path style="fill:#00AAF0;" d="M256,75v362c99.964,0,181-81.037,181-181C437,156.036,355.964,75,256,75z"/>
<path style="fill:#FFFFFF;" d="M311,216c0-16.542-13.458-30-30-30H176c-14.838,0-27.187,10.831-29.575,25H126v30h20v55
	c0,16.542,13.458,30,30,30h105c16.542,0,30-13.458,30-30v-15.483l58,30.208v-109.45l-58,30.208V216z"/>
<path style="fill:#F2F2F2;" d="M311,231.483V216c0-16.542-13.458-30-30-30h-25v140h25c16.542,0,30-13.458,30-30v-15.483l58,30.208
	v-109.45L311,231.483z"/>
<g>
</g>
<g>
</g>
<g>
</g>
<g>
</g>
<g>
</g>
<g>
</g>
<g>
</g>
<g>
</g>
<g>
</g>
<g>
</g>
<g>
</g>
<g>
</g>
<g>
</g>
<g>
</g>
<g>
</g>
</svg>
