<?xml version="1.0" encoding="iso-8859-1"?>
<!-- Generator: Adobe Illustrator 19.0.0, SVG Export Plug-In . SVG Version: 6.00 Build 0)  -->
<svg version="1.1" id="Capa_1" xmlns="http://www.w3.org/2000/svg" xmlns:xlink="http://www.w3.org/1999/xlink" x="0px" y="0px"
	 viewBox="0 0 512 512" style="enable-background:new 0 0 512 512;" xml:space="preserve">
<path style="fill:#F2F2F2;" d="M407,512H105C47.103,512,0,464.897,0,407V105C0,47.103,47.103,0,105,0h302
	c57.897,0,105,47.103,105,105v302C512,464.897,464.897,512,407,512z"/>
<path style="fill:#E5E5E5;" d="M407,0H256v512h151c57.897,0,105-47.103,105-105V105C512,47.103,464.897,0,407,0z"/>
<circle style="fill:#87E694;" cx="256" cy="256" r="181"/>
<g>
	<path style="fill:#66CC70;" d="M256,75v362c99.964,0,181-81.037,181-181C437,156.036,355.964,75,256,75z"/>
	<path style="fill:#66CC70;" d="M256,452c-108.075,0-196-87.925-196-196S147.925,60,256,60s196,87.925,196,196S364.075,452,256,452z
		 M256,90c-91.533,0-166,74.467-166,166s74.467,166,166,166s166-74.467,166-166S347.533,90,256,90z"/>
	<circle style="fill:#66CC70;" cx="256" cy="256" r="30"/>
	<path style="fill:#66CC70;" d="M256,361c-57.897,0-105-47.103-105-105s47.103-105,105-105s105,47.103,105,105S313.897,361,256,361z
		 M256,181c-41.355,0-75,33.645-75,75s33.645,75,75,75s75-33.645,75-75S297.355,181,256,181z"/>
</g>
<path style="fill:#00A621;" d="M256,60v30c40.377,0,77.428,14.497,106.236,38.55l-43.387,43.387
	C301.314,158.794,279.551,151,256,151v30c15.264,0,29.47,4.594,41.33,12.458l-33.563,33.563c-2.478-0.662-5.08-1.021-7.766-1.021v60
	c16.569,0,30-13.431,30-30c0-2.687-0.358-5.289-1.021-7.766l33.563-33.563C326.406,226.53,331,240.736,331,256
	c0,41.355-33.645,75-75,75v30c57.897,0,105-47.103,105-105c0-23.551-7.794-45.315-20.938-62.85l43.387-43.387
	C407.503,178.572,422,215.623,422,256c0,91.533-74.467,166-166,166v30c108.075,0,196-87.925,196-196S364.075,60,256,60z"/>
<g>
</g>
<g>
</g>
<g>
</g>
<g>
</g>
<g>
</g>
<g>
</g>
<g>
</g>
<g>
</g>
<g>
</g>
<g>
</g>
<g>
</g>
<g>
</g>
<g>
</g>
<g>
</g>
<g>
</g>
</svg>
