<?xml version="1.0" encoding="iso-8859-1"?>
<!-- Generator: Adobe Illustrator 19.0.0, SVG Export Plug-In . SVG Version: 6.00 Build 0)  -->
<svg version="1.1" id="Capa_1" xmlns="http://www.w3.org/2000/svg" xmlns:xlink="http://www.w3.org/1999/xlink" x="0px" y="0px"
	 viewBox="0 0 512 512" style="enable-background:new 0 0 512 512;" xml:space="preserve">
<path style="fill:#57565C;" d="M407,512H105C47.103,512,0,464.897,0,407V105C0,47.103,47.103,0,105,0h302
	c57.897,0,105,47.103,105,105v302C512,464.897,464.897,512,407,512z"/>
<path style="fill:#3E3D42;" d="M407,0H256v512h151c57.897,0,105-47.103,105-105V105C512,47.103,464.897,0,407,0z"/>
<path style="fill:#FFFFFF;" d="M256,376c-66.274,0-120-53.726-120-120c0-44.416,24.133-83.193,60-103.942V256
	c0,33.084,26.916,60,60,60s60-26.916,60-60s-26.916-60-60-60c-10.925,0-21.167,2.949-30,8.072v-64.291
	c9.589-2.468,19.641-3.781,30-3.781c66.274,0,120,53.726,120,120S322.274,376,256,376z M226,256c0-16.542,13.458-30,30-30
	s30,13.458,30,30s-13.458,30-30,30S226,272.542,226,256z"/>
<g>
	<path style="fill:#F2F2F2;" d="M286,256c0-16.542-13.458-30-30-30v60C272.542,286,286,272.542,286,256z"/>
	<path style="fill:#F2F2F2;" d="M256,136v60c33.084,0,60,26.916,60,60s-26.916,60-60,60v60c66.274,0,120-53.726,120-120
		S322.274,136,256,136z"/>
</g>
<g>
</g>
<g>
</g>
<g>
</g>
<g>
</g>
<g>
</g>
<g>
</g>
<g>
</g>
<g>
</g>
<g>
</g>
<g>
</g>
<g>
</g>
<g>
</g>
<g>
</g>
<g>
</g>
<g>
</g>
</svg>
