<?xml version="1.0" encoding="iso-8859-1"?>
<!-- Generator: Adobe Illustrator 19.0.0, SVG Export Plug-In . SVG Version: 6.00 Build 0)  -->
<svg version="1.1" id="Capa_1" xmlns="http://www.w3.org/2000/svg" xmlns:xlink="http://www.w3.org/1999/xlink" x="0px" y="0px"
	 viewBox="0 0 512 512" style="enable-background:new 0 0 512 512;" xml:space="preserve">
<path style="fill:#57565C;" d="M407,512H105C47.103,512,0,464.897,0,407V105C0,47.103,47.103,0,105,0h302
	c57.897,0,105,47.103,105,105v302C512,464.897,464.897,512,407,512z"/>
<path style="fill:#3E3D42;" d="M407,0H256v512h151c57.897,0,105-47.103,105-105V105C512,47.103,464.897,0,407,0z"/>
<path style="fill:#FFFFFF;" d="M256,452c-108.075,0-196-87.925-196-196S147.925,60,256,60s196,87.925,196,196S364.075,452,256,452z"
	/>
<path style="fill:#E5E5E5;" d="M256,60v392c108.075,0,196-87.925,196-196S364.075,60,256,60z"/>
<circle cx="256" cy="256" r="20"/>
<path style="fill:#CCCCCC;" d="M394.528,117.472C359.037,81.981,310.038,60,256,60v196L394.528,117.472z"/>
<path style="fill:#F2F2F2;" d="M117.472,394.528C152.963,430.019,201.963,452,256,452V256L117.472,394.528z"/>
<circle style="fill:#CCCCCC;" cx="256" cy="256" r="65"/>
<path style="fill:#BFBFBF;" d="M256,191v130c35.898,0,65-29.102,65-65S291.898,191,256,191z"/>
<circle style="fill:#57565C;" cx="256" cy="256" r="20"/>
<g>
</g>
<g>
</g>
<g>
</g>
<g>
</g>
<g>
</g>
<g>
</g>
<g>
</g>
<g>
</g>
<g>
</g>
<g>
</g>
<g>
</g>
<g>
</g>
<g>
</g>
<g>
</g>
<g>
</g>
</svg>
