<?xml version="1.0" encoding="iso-8859-1"?>
<!-- Generator: Adobe Illustrator 19.0.0, SVG Export Plug-In . SVG Version: 6.00 Build 0)  -->
<svg version="1.1" id="Capa_1" xmlns="http://www.w3.org/2000/svg" xmlns:xlink="http://www.w3.org/1999/xlink" x="0px" y="0px"
	 viewBox="0 0 512 512" style="enable-background:new 0 0 512 512;" xml:space="preserve">
<path style="fill:#FF9400;" d="M407,512H105C47.103,512,0,464.897,0,407V105C0,47.103,47.103,0,105,0h302
	c57.897,0,105,47.103,105,105v302C512,464.897,464.897,512,407,512z"/>
<path style="fill:#FF6849;" d="M407,0H256v512h151c57.897,0,105-47.103,105-105V105C512,47.103,464.897,0,407,0z"/>
<path style="fill:#FFFFFF;" d="M256,60C147.925,60,60,147.925,60,256s87.925,196,196,196s196-87.925,196-196S364.075,60,256,60z
	 M90,256c0-91.533,74.467-166,166-166c5.692,0,11.318,0.289,16.864,0.851l-55.401,55.401h-14.142l-56.569,56.569v14.142
	l-55.901,55.901C90.289,267.318,90,261.692,90,256z M111.3,337.267c-5.24-9.294-9.61-19.138-13.001-29.426l70.372-70.373H181.4
	l56.569-56.569v-12.728l69.872-69.873c10.288,3.39,20.133,7.76,29.426,13.001l-42.023,42.023h-14.142l-127.279,127.28v14.142
	L111.3,337.267z M128.645,362.348l46.391-46.391h14.142l127.279-127.279v-14.142l45.89-45.891
	c7.685,6.428,14.782,13.535,21.197,21.231l-45.874,45.873h-14.142l-127.279,127.28v14.142l-46.373,46.374
	C142.18,377.13,135.073,370.033,128.645,362.348z M174.998,400.849l42.465-42.465h14.142l127.279-127.279v-14.142l41.965-41.965
	c5.227,9.31,9.581,19.17,12.954,29.473l-69.06,69.06H330.6L274.031,330.1v14.142l-69.56,69.56
	C194.169,410.43,184.308,406.075,174.998,400.849z M256,422c-5.562,0-11.06-0.28-16.484-0.817l56.435-56.435h12.728l56.569-56.569
	v-12.728l55.935-55.935C421.72,244.94,422,250.438,422,256C422,347.533,347.533,422,256,422z"/>
<path style="fill:#F2F2F2;" d="M256,60v30c5.692,0,11.318,0.289,16.864,0.851L256,107.715v42.426L307.841,98.3
	c10.288,3.39,20.133,7.76,29.426,13.001l-42.023,42.023h-14.142L256,178.425v70.711l60.458-60.458v-14.142l45.89-45.891
	c7.685,6.428,14.782,13.535,21.197,21.231l-45.874,45.873h-14.142L256,263.278v70.71l102.884-102.884v-14.142l41.965-41.965
	c5.227,9.31,9.581,19.17,12.954,29.473l-69.06,69.06H330.6l-56.569,56.57v14.142L256,362.273v42.426l39.951-39.951h12.728
	l56.569-56.569v-12.728l55.935-55.935C421.72,244.94,422,250.438,422,256c0,91.533-74.467,166-166,166v30
	c108.075,0,196-87.925,196-196S364.075,60,256,60z"/>
<g>
</g>
<g>
</g>
<g>
</g>
<g>
</g>
<g>
</g>
<g>
</g>
<g>
</g>
<g>
</g>
<g>
</g>
<g>
</g>
<g>
</g>
<g>
</g>
<g>
</g>
<g>
</g>
<g>
</g>
</svg>
