<?xml version="1.0" encoding="iso-8859-1"?>
<!-- Generator: Adobe Illustrator 19.0.0, SVG Export Plug-In . SVG Version: 6.00 Build 0)  -->
<svg version="1.1" id="Capa_1" xmlns="http://www.w3.org/2000/svg" xmlns:xlink="http://www.w3.org/1999/xlink" x="0px" y="0px"
	 viewBox="0 0 512 512" style="enable-background:new 0 0 512 512;" xml:space="preserve">
<path style="fill:#00C3FF;" d="M407,512H105C47.103,512,0,464.897,0,407V105C0,47.103,47.103,0,105,0h302
	c57.897,0,105,47.103,105,105v302C512,464.897,464.897,512,407,512z"/>
<path style="fill:#00AAF0;" d="M407,0H256v512h151c57.897,0,105-47.103,105-105V105C512,47.103,464.897,0,407,0z"/>
<path style="fill:#FFFFFF;" d="M394.461,117.275C357.446,80.33,308.292,60,256.004,60c-0.125,0-0.257,0-0.382,0
	C147.592,60.205,59.836,148.266,60,256.304c0.066,43.463,14.064,84.613,40.481,119c25.573,33.289,61.783,57.895,101.961,69.284
	l8.182-28.862C139.715,395.625,90.112,330.049,90,256.258C89.861,164.756,164.184,90.173,255.679,90c0.108,0,0.215,0,0.323,0
	c44.283,0,85.918,17.22,117.266,48.509C404.693,169.875,422,211.601,422,256c0,78.862-56.028,147.316-133.224,162.768
	c-5.932,1.188-10.224-1.42-12.25-3.082c-3.512-2.879-5.526-7.131-5.526-11.666v-53.304c22.468-2.496,40-21.593,40-44.716v-60h20v-30
	h-30v-70h-30v70h-30v-70h-30v70h-30v30h20v60c0,23.122,17.532,42.219,40,44.716v53.304c0,13.559,6.017,26.268,16.509,34.868
	c8.107,6.646,18.098,10.173,28.34,10.173c2.931,0,5.883-0.289,8.816-0.876c43.782-8.764,83.67-32.626,112.316-67.193
	C436.012,345.959,452,301.57,452,256C452,203.577,431.565,154.31,394.461,117.275z"/>
<path style="fill:#F2F2F2;" d="M394.461,117.275C357.446,80.33,308.292,60,256.004,60c-0.001,0-0.003,0-0.004,0v30
	c0,0,0.001,0,0.002,0c44.283,0,85.918,17.22,117.266,48.509C404.693,169.875,422,211.601,422,256
	c0,78.862-56.028,147.316-133.224,162.768c-5.932,1.188-10.224-1.42-12.25-3.082c-3.512-2.879-5.526-7.131-5.526-11.666v-53.304
	c22.468-2.496,40-21.593,40-44.716v-60h20v-30h-30v-70h-30v70h-15v221.58c0.495,0.443,0.992,0.885,1.509,1.308
	c8.107,6.646,18.098,10.173,28.34,10.173c2.931,0,5.883-0.289,8.816-0.876c43.782-8.764,83.67-32.626,112.316-67.193
	C436.012,345.959,452,301.57,452,256C452,203.577,431.565,154.31,394.461,117.275z"/>
<g>
</g>
<g>
</g>
<g>
</g>
<g>
</g>
<g>
</g>
<g>
</g>
<g>
</g>
<g>
</g>
<g>
</g>
<g>
</g>
<g>
</g>
<g>
</g>
<g>
</g>
<g>
</g>
<g>
</g>
</svg>
