<?xml version="1.0" encoding="iso-8859-1"?>
<!-- Generator: Adobe Illustrator 19.0.0, SVG Export Plug-In . SVG Version: 6.00 Build 0)  -->
<svg version="1.1" id="Capa_1" xmlns="http://www.w3.org/2000/svg" xmlns:xlink="http://www.w3.org/1999/xlink" x="0px" y="0px"
	 viewBox="0 0 512 512" style="enable-background:new 0 0 512 512;" xml:space="preserve">
<path style="fill:#F2F2F2;" d="M407,512H105C47.103,512,0,464.897,0,407V105C0,47.103,47.103,0,105,0h302
	c57.897,0,105,47.103,105,105v302C512,464.897,464.897,512,407,512z"/>
<path style="fill:#E5E5E5;" d="M407,0H256v512h151c57.897,0,105-47.103,105-105V105C512,47.103,464.897,0,407,0z"/>
<g>
	<path style="fill:#00C3FF;" d="M408.735,238.265c-84.219-84.218-221.252-84.218-305.471,0l-21.213-21.213
		C128.515,170.588,190.291,145,256,145s127.485,25.588,173.948,72.052L408.735,238.265z"/>
	<path style="fill:#00C3FF;" d="M345.096,301.904c-49.127-49.127-129.064-49.127-178.191,0l-21.213-21.213
		c60.824-60.824,159.793-60.824,220.617,0L345.096,301.904z"/>
	<path style="fill:#00C3FF;" d="M202.26,337.26L256,391l53.74-53.74C280.107,307.627,231.893,307.627,202.26,337.26z"/>
</g>
<g>
	<path style="fill:#00AAF0;" d="M256,391l53.74-53.74c-14.816-14.816-34.278-22.224-53.74-22.224L256,391L256,391z"/>
	<path style="fill:#00AAF0;" d="M256,265.059c32.266,0,64.532,12.282,89.096,36.845l21.213-21.213
		c-30.412-30.412-70.36-45.618-110.309-45.618L256,265.059L256,265.059z"/>
	<path style="fill:#00AAF0;" d="M256,145v30.101c55.313,0,110.626,21.054,152.735,63.163l21.213-21.213
		C383.485,170.588,321.709,145,256,145z"/>
</g>
<g>
</g>
<g>
</g>
<g>
</g>
<g>
</g>
<g>
</g>
<g>
</g>
<g>
</g>
<g>
</g>
<g>
</g>
<g>
</g>
<g>
</g>
<g>
</g>
<g>
</g>
<g>
</g>
<g>
</g>
</svg>
