<?xml version="1.0" encoding="iso-8859-1"?>
<!-- Generator: Adobe Illustrator 19.0.0, SVG Export Plug-In . SVG Version: 6.00 Build 0)  -->
<svg version="1.1" id="Capa_1" xmlns="http://www.w3.org/2000/svg" xmlns:xlink="http://www.w3.org/1999/xlink" x="0px" y="0px"
	 viewBox="0 0 512 512" style="enable-background:new 0 0 512 512;" xml:space="preserve">
<path style="fill:#F2F2F2;" d="M407,512H105C47.103,512,0,464.897,0,407V105C0,47.103,47.103,0,105,0h302
	c57.897,0,105,47.103,105,105v302C512,464.897,464.897,512,407,512z"/>
<path style="fill:#E5E5E5;" d="M407,0H256v512h151c57.897,0,105-47.103,105-105V105C512,47.103,464.897,0,407,0z"/>
<path style="fill:#FF80E4;" d="M383,316v15v25c0,22.056-17.944,40-40,40h-25c-22.056,0-40-17.944-40-40s17.944-40,40-40h35V168.807
	l-144,24.828V346v15v25c0,22.056-17.944,40-40,40h-25c-22.056,0-40-17.944-40-40s17.944-40,40-40h35V118.365l204-35.172V316z"/>
<path style="fill:#FF5AD4;" d="M256,105.089v80.443l97-16.724V316h-35c-22.056,0-40,17.944-40,40s17.944,40,40,40h25
	c22.056,0,40-17.944,40-40v-25v-15V83.192L256,105.089z"/>
<g>
</g>
<g>
</g>
<g>
</g>
<g>
</g>
<g>
</g>
<g>
</g>
<g>
</g>
<g>
</g>
<g>
</g>
<g>
</g>
<g>
</g>
<g>
</g>
<g>
</g>
<g>
</g>
<g>
</g>
</svg>
