<?xml version="1.0" encoding="iso-8859-1"?>
<!-- Generator: Adobe Illustrator 19.0.0, SVG Export Plug-In . SVG Version: 6.00 Build 0)  -->
<svg version="1.1" id="Capa_1" xmlns="http://www.w3.org/2000/svg" xmlns:xlink="http://www.w3.org/1999/xlink" x="0px" y="0px"
	 viewBox="0 0 512 512" style="enable-background:new 0 0 512 512;" xml:space="preserve">
<path style="fill:#87E694;" d="M407,512H105C47.103,512,0,464.897,0,407V105C0,47.103,47.103,0,105,0h302
	c57.897,0,105,47.103,105,105v302C512,464.897,464.897,512,407,512z"/>
<path style="fill:#66CC70;" d="M407,0H256v512h151c57.897,0,105-47.103,105-105V105C512,47.103,464.897,0,407,0z"/>
<g>
	<rect x="76" y="391" style="fill:#FFFFFF;" width="360" height="30"/>
	<rect x="91" y="291" style="fill:#FFFFFF;" width="60" height="70"/>
	<rect x="181" y="251" style="fill:#FFFFFF;" width="60" height="110"/>
</g>
<g>
	<rect x="271" y="111" style="fill:#F2F2F2;" width="60" height="250"/>
	<rect x="361" y="191" style="fill:#F2F2F2;" width="60" height="170"/>
	<rect x="256" y="391" style="fill:#F2F2F2;" width="180" height="30"/>
</g>
<g>
</g>
<g>
</g>
<g>
</g>
<g>
</g>
<g>
</g>
<g>
</g>
<g>
</g>
<g>
</g>
<g>
</g>
<g>
</g>
<g>
</g>
<g>
</g>
<g>
</g>
<g>
</g>
<g>
</g>
</svg>
