<?xml version="1.0" encoding="iso-8859-1"?>
<!-- Generator: Adobe Illustrator 19.0.0, SVG Export Plug-In . SVG Version: 6.00 Build 0)  -->
<svg version="1.1" id="Capa_1" xmlns="http://www.w3.org/2000/svg" xmlns:xlink="http://www.w3.org/1999/xlink" x="0px" y="0px"
	 viewBox="0 0 512 512" style="enable-background:new 0 0 512 512;" xml:space="preserve">
<path style="fill:#FFFFFF;" d="M407,512H105C47.103,512,0,464.897,0,407V105C0,47.103,47.103,0,105,0h302
	c57.897,0,105,47.103,105,105v302C512,464.897,464.897,512,407,512z"/>
<path style="fill:#F2F2F2;" d="M407,0H256v512h151c57.897,0,105-47.103,105-105V105C512,47.103,464.897,0,407,0z"/>
<path style="fill:#FFAB15;" d="M106,426v-30h406V105C512,47.103,464.897,0,407,0H105C47.103,0,0,47.103,0,105v302
	c0,57.897,47.103,105,105,105h302c51.411,0,94.306-37.141,103.273-86H106z M372.673,88.972c9.745-9.746,25.607-9.748,35.354,0
	c9.748,9.748,9.748,25.608,0,35.355l-10.606,10.606c5.667,5.666,8.787,13.2,8.787,21.213s-3.12,15.547-8.787,21.214l-80.61,80.61
	l-21.213-21.213l-21.92,21.92l-35.356-35.355L372.673,88.972z M216.349,243.776l36.875,36.874l-120.97,105.305l-21.209-21.209
	L216.349,243.776z"/>
<g>
	<path style="fill:#FF9400;" d="M407,0H256v205.644L372.673,88.972c9.745-9.746,25.607-9.748,35.354,0
		c9.748,9.748,9.748,25.608,0,35.355l-10.606,10.606c5.667,5.666,8.787,13.2,8.787,21.213s-3.12,15.547-8.787,21.214l-80.61,80.61
		l-21.213-21.213l-21.92,21.92L256,241v155h256V105C512,47.103,464.897,0,407,0z"/>
	<path style="fill:#FF9400;" d="M256,512h151c51.411,0,94.306-37.141,103.273-86H256V512z"/>
</g>
<g>
</g>
<g>
</g>
<g>
</g>
<g>
</g>
<g>
</g>
<g>
</g>
<g>
</g>
<g>
</g>
<g>
</g>
<g>
</g>
<g>
</g>
<g>
</g>
<g>
</g>
<g>
</g>
<g>
</g>
</svg>
