<?xml version="1.0" encoding="iso-8859-1"?>
<!-- Generator: Adobe Illustrator 19.0.0, SVG Export Plug-In . SVG Version: 6.00 Build 0)  -->
<svg version="1.1" id="Capa_1" xmlns="http://www.w3.org/2000/svg" xmlns:xlink="http://www.w3.org/1999/xlink" x="0px" y="0px"
	 viewBox="0 0 512 512" style="enable-background:new 0 0 512 512;" xml:space="preserve">
<path style="fill:#FFFFFF;" d="M407,512H105C47.103,512,0,464.897,0,407V105C0,47.103,47.103,0,105,0h302
	c57.897,0,105,47.103,105,105v302C512,464.897,464.897,512,407,512z"/>
<path style="fill:#F2F2F2;" d="M407,0H256v512h151c57.897,0,105-47.103,105-105V105C512,47.103,464.897,0,407,0z"/>
<g>
	<path style="fill:#FF9400;" d="M499.352,55.074L340.853,213.573l7.071,7.071l68.373-17.726c4.953-1.284,10.216,0.149,13.834,3.767
		c4.836,4.836,5.616,12.402,1.868,18.124c-13.327,20.341-32.358,36.3-54.71,45.88l-1.383,0.593
		c-29.016,12.435-47.856,40.57-49.183,72.11c-1.1,26.13-10.627,50.502-29.004,68.878c-44.91,44.91-125.639,36.996-180.312-17.678
		C62.734,339.919,54.819,259.19,99.729,214.28c18.376-18.376,42.748-27.904,68.879-29.004c31.54-1.327,59.675-20.168,72.11-49.183
		l0.593-1.383c9.579-22.352,25.539-41.383,45.88-54.71l0,0c5.721-3.748,13.287-2.969,18.124,1.868
		c3.618,3.618,5.051,8.881,3.767,13.834l-17.726,68.373l7.071,7.071L456.926,12.648C442.068,4.584,425.06,0,407,0H105
		C47.103,0,0,47.103,0,105v302c0,57.897,47.103,105,105,105h302c57.897,0,105-47.103,105-105V105
		C512,86.94,507.416,69.932,499.352,55.074z"/>
	
		<rect x="181.348" y="275.645" transform="matrix(-0.7071 -0.7071 0.7071 -0.7071 172.3475 652.679)" style="fill:#FF9400;" width="79.999" height="30"/>
	
		<rect x="223.783" y="233.215" transform="matrix(-0.7071 -0.7071 0.7071 -0.7071 274.7902 610.2522)" style="fill:#FF9400;" width="79.999" height="30"/>
</g>
<g>
	<path style="fill:#FF6849;" d="M256,109.322c8.575-11.451,19.101-21.4,31.191-29.321l0,0c5.721-3.748,13.287-2.969,18.124,1.868
		c3.618,3.618,5.051,8.881,3.767,13.834l-17.726,68.373l7.071,7.071L456.926,12.648C442.068,4.584,425.06,0,407,0H256V109.322z"/>
	<path style="fill:#FF6849;" d="M499.352,55.074L340.853,213.573l7.071,7.071l68.373-17.726c4.953-1.284,10.216,0.149,13.834,3.767
		c4.836,4.836,5.616,12.402,1.868,18.124c-13.327,20.341-32.358,36.3-54.71,45.88l-1.383,0.593
		c-29.016,12.435-47.856,40.57-49.183,72.11c-1.1,26.13-10.627,50.502-29.004,68.878c-11.805,11.805-26.088,19.955-41.719,24.571
		V512h151c57.897,0,105-47.103,105-105V105C512,86.94,507.416,69.932,499.352,55.074z"/>
	<polygon style="fill:#FF6849;" points="256,312.569 260.243,308.326 256,304.083 	"/>
	<polygon style="fill:#FF6849;" points="256,219.23 256,261.657 281.456,287.113 302.669,265.9 	"/>
</g>
<g>
</g>
<g>
</g>
<g>
</g>
<g>
</g>
<g>
</g>
<g>
</g>
<g>
</g>
<g>
</g>
<g>
</g>
<g>
</g>
<g>
</g>
<g>
</g>
<g>
</g>
<g>
</g>
<g>
</g>
</svg>
