<?xml version="1.0" encoding="iso-8859-1"?>
<!-- Generator: Adobe Illustrator 19.0.0, SVG Export Plug-In . SVG Version: 6.00 Build 0)  -->
<svg version="1.1" id="Capa_1" xmlns="http://www.w3.org/2000/svg" xmlns:xlink="http://www.w3.org/1999/xlink" x="0px" y="0px"
	 viewBox="0 0 512 512" style="enable-background:new 0 0 512 512;" xml:space="preserve">
<path style="fill:#57565C;" d="M407,512H105C47.103,512,0,464.897,0,407V105C0,47.103,47.103,0,105,0h302
	c57.897,0,105,47.103,105,105v302C512,464.897,464.897,512,407,512z"/>
<path style="fill:#3E3D42;" d="M407,0H256v512h151c57.897,0,105-47.103,105-105V105C512,47.103,464.897,0,407,0z"/>
<g>
	<path style="fill:#E5E5E5;" d="M163.393,193.211c9.844-12.975,23.53-13.038,23.53-13.038s2.035,12.199-7.744,23.95
		c-10.442,12.548-22.312,10.494-22.312,10.494S154.639,204.749,163.393,193.211z"/>
	<path style="fill:#E5E5E5;" d="M184.974,329.78c-8.754,0-15.559-5.899-24.783-5.899c-9.399,0-18.727,6.119-24.801,6.119
		C117.987,330,96,292.326,96,262.043c0-29.795,18.611-45.425,36.066-45.425c11.348,0,20.154,6.544,26.053,6.544
		c5.065,0,14.464-6.961,26.698-6.961c21.06,0,29.344,14.985,29.344,14.985s-16.204,8.284-16.204,28.386
		c0,22.677,20.185,30.492,20.185,30.492S204.033,329.78,184.974,329.78z"/>
	<path style="fill:#E5E5E5;" d="M296.2,327.4c-5.2,1.6-10.668,2.4-16.4,2.4c-17.8,0-27.2-9.8-27.2-25.8v-60.2h-13.8v-20.6h13.8v-34
		h26.8v34h22v20.6h-22V295c0,7.25,4.1,10.2,10,10.2c5.6,0,13-3.131,14.6-3.8l5.4,21.2C305.8,324.2,301.4,325.8,296.2,327.4z"/>
</g>
<g>
	<polygon style="fill:#CCCCCC;" points="380.598,328 351.598,328 312.998,223.2 340.598,223.2 367.198,306.2 393.998,223.2 
		419.198,223.2 	"/>
	<path style="fill:#CCCCCC;" d="M304,301.4c-1.6,0.669-9,3.8-14.6,3.8c-5.9,0-10-2.95-10-10.2v-51.2h22v-20.6h-22v-34H256v129.136
		c4.193,7.309,12.216,11.463,23.8,11.463c5.731,0,11.2-0.8,16.4-2.4c5.2-1.6,9.6-3.2,13.2-4.8L304,301.4z"/>
</g>
<g>
</g>
<g>
</g>
<g>
</g>
<g>
</g>
<g>
</g>
<g>
</g>
<g>
</g>
<g>
</g>
<g>
</g>
<g>
</g>
<g>
</g>
<g>
</g>
<g>
</g>
<g>
</g>
<g>
</g>
</svg>
