<?xml version="1.0" encoding="iso-8859-1"?>
<!-- Generator: Adobe Illustrator 19.0.0, SVG Export Plug-In . SVG Version: 6.00 Build 0)  -->
<svg version="1.1" id="Capa_1" xmlns="http://www.w3.org/2000/svg" xmlns:xlink="http://www.w3.org/1999/xlink" x="0px" y="0px"
	 viewBox="0 0 512 512" style="enable-background:new 0 0 512 512;" xml:space="preserve">
<path style="fill:#EA596E;" d="M407,512H105C47.103,512,0,464.897,0,407V105C0,47.103,47.103,0,105,0h302
	c57.897,0,105,47.103,105,105v302C512,464.897,464.897,512,407,512z"/>
<path style="fill:#DD2E44;" d="M407,0H256v512h151c57.897,0,105-47.103,105-105V105C512,47.103,464.897,0,407,0z"/>
<path style="fill:#F2F2F2;" d="M271.745,101.284C294.61,71.147,326.399,71,326.399,71s4.728,28.333-17.987,55.628
	c-24.254,29.145-51.823,24.375-51.823,24.375S251.413,128.082,271.745,101.284z"/>
<path style="fill:#FFFFFF;" d="M320.809,418.489c-20.333,0-36.139-13.702-57.562-13.702c-21.831,0-43.496,14.213-57.605,14.213
	c-40.423,0-91.491-87.504-91.491-157.842c0-69.204,43.226-105.507,83.771-105.507c26.357,0,46.811,15.2,60.513,15.2
	c11.764,0,33.594-16.169,62.011-16.169c48.915,0,68.157,34.806,68.157,34.806s-37.635,19.242-37.635,65.932
	c0,52.671,46.883,70.823,46.883,70.823S365.076,418.489,320.809,418.489z"/>
<path style="fill:#F2F2F2;" d="M350.967,255.42c0-46.69,37.635-65.932,37.635-65.932s-19.242-34.806-68.157-34.806
	c-28.417,0-50.247,16.169-62.011,16.169c-0.788,0-1.602-0.056-2.434-0.151v234.58c2.407-0.311,4.826-0.494,7.247-0.494
	c21.423,0,37.229,13.702,57.562,13.702c44.267,0,77.04-92.246,77.04-92.246S350.967,308.091,350.967,255.42z"/>
<g>
</g>
<g>
</g>
<g>
</g>
<g>
</g>
<g>
</g>
<g>
</g>
<g>
</g>
<g>
</g>
<g>
</g>
<g>
</g>
<g>
</g>
<g>
</g>
<g>
</g>
<g>
</g>
<g>
</g>
</svg>
