<?xml version="1.0" encoding="iso-8859-1"?>
<!-- Generator: Adobe Illustrator 19.0.0, SVG Export Plug-In . SVG Version: 6.00 Build 0)  -->
<svg version="1.1" id="Capa_1" xmlns="http://www.w3.org/2000/svg" xmlns:xlink="http://www.w3.org/1999/xlink" x="0px" y="0px"
	 viewBox="0 0 512 512" style="enable-background:new 0 0 512 512;" xml:space="preserve">
<path style="fill:#DD86F2;" d="M407,0H105C47.103,0,0,47.103,0,105v302c0,57.897,47.103,105,105,105h302
	c57.897,0,105-47.103,105-105V105C512,47.103,464.897,0,407,0z"/>
<path style="fill:#CD67E5;" d="M407,0H256v512h151c57.897,0,105-47.103,105-105V105C512,47.103,464.897,0,407,0z"/>
<polygon style="fill:#FFFFFF;" points="256,368.125 120.073,466.882 171.993,307.09 36.064,208.333 204.08,208.333 256,48.54 
	307.92,208.333 475.936,208.333 340.007,307.09 391.927,466.882 "/>
<polygon style="fill:#F2F2F2;" points="475.936,208.333 307.92,208.333 256,48.54 256,368.125 391.927,466.882 340.007,307.09 "/>
<polygon style="fill:#DD86F2;" points="216,246 216,306 286,306 286,276 286,246 "/>
<g>
	<polygon style="fill:#CD67E5;" points="306,256 286,276 306,296 316,296 316,256 	"/>
	<polygon style="fill:#CD67E5;" points="256,246 256,306 286,306 286,276 286,246 	"/>
</g>
<g>
</g>
<g>
</g>
<g>
</g>
<g>
</g>
<g>
</g>
<g>
</g>
<g>
</g>
<g>
</g>
<g>
</g>
<g>
</g>
<g>
</g>
<g>
</g>
<g>
</g>
<g>
</g>
<g>
</g>
</svg>
