<?xml version="1.0" encoding="iso-8859-1"?>
<!-- Generator: Adobe Illustrator 19.0.0, SVG Export Plug-In . SVG Version: 6.00 Build 0)  -->
<svg version="1.1" id="Capa_1" xmlns="http://www.w3.org/2000/svg" xmlns:xlink="http://www.w3.org/1999/xlink" x="0px" y="0px"
	 viewBox="0 0 512 512" style="enable-background:new 0 0 512 512;" xml:space="preserve">
<path style="fill:#F2F2F2;" d="M407,512H105C47.103,512,0,464.897,0,407V105C0,47.103,47.103,0,105,0h302
	c57.897,0,105,47.103,105,105v302C512,464.897,464.897,512,407,512z"/>
<path style="fill:#E5E5E5;" d="M407,0H256v512h151c57.897,0,105-47.103,105-105V105C512,47.103,464.897,0,407,0z"/>
<path style="fill:#00C3FF;" d="M406,156H233.678c-11.319,0-22.174-4.496-30.178-12.5S184.641,131,173.322,131H106
	c-8.284,0-15,6.716-15,15v215c0,8.284,6.716,15,15,15h300c8.284,0,15-6.716,15-15V171C421,162.716,414.284,156,406,156z M391,216
	H121v-30h270V216z"/>
<path style="fill:#00AAF0;" d="M406,156H256v30h135v30H256v160h150c8.284,0,15-6.716,15-15V171C421,162.716,414.284,156,406,156z"/>
<g>
</g>
<g>
</g>
<g>
</g>
<g>
</g>
<g>
</g>
<g>
</g>
<g>
</g>
<g>
</g>
<g>
</g>
<g>
</g>
<g>
</g>
<g>
</g>
<g>
</g>
<g>
</g>
<g>
</g>
</svg>
