<?xml version="1.0" encoding="iso-8859-1"?>
<!-- Generator: Adobe Illustrator 19.0.0, SVG Export Plug-In . SVG Version: 6.00 Build 0)  -->
<svg version="1.1" id="Capa_1" xmlns="http://www.w3.org/2000/svg" xmlns:xlink="http://www.w3.org/1999/xlink" x="0px" y="0px"
	 viewBox="0 0 512 512" style="enable-background:new 0 0 512 512;" xml:space="preserve">
<path style="fill:#F2F2F2;" d="M407,512H105C47.103,512,0,464.897,0,407V105C0,47.103,47.103,0,105,0h302
	c57.897,0,105,47.103,105,105v302C512,464.897,464.897,512,407,512z"/>
<path style="fill:#E5E5E5;" d="M407,0H256v512h151c57.897,0,105-47.103,105-105V105C512,47.103,464.897,0,407,0z"/>
<path style="fill:#00C3FF;" d="M95,301c-24.813,0-45-20.187-45-45s20.187-45,45-45s45,20.187,45,45S119.813,301,95,301z M95,241
	c-8.271,0-15,6.729-15,15s6.729,15,15,15s15-6.729,15-15S103.271,241,95,241z"/>
<path style="fill:#87E694;" d="M95,421c-24.813,0-45-20.187-45-45s20.187-45,45-45s45,20.187,45,45S119.813,421,95,421z M95,361
	c-8.271,0-15,6.729-15,15s6.729,15,15,15s15-6.729,15-15S103.271,361,95,361z"/>
<path style="fill:#FFAB15;" d="M95,181c-24.813,0-45-20.187-45-45s20.187-45,45-45s45,20.187,45,45S119.813,181,95,181z M95,121
	c-8.271,0-15,6.729-15,15s6.729,15,15,15s15-6.729,15-15S103.271,121,95,121z"/>
<g>
	<rect x="170" y="301" style="fill:#E5E5E5;" width="342" height="30"/>
	<path style="fill:#E5E5E5;" d="M510.924,422H170v30h331.855C506.299,442.671,509.403,432.588,510.924,422z"/>
	<path style="fill:#E5E5E5;" d="M170,60v30h340.924c-1.521-10.588-4.625-20.671-9.069-30H170z"/>
	<rect x="170" y="181" style="fill:#E5E5E5;" width="342" height="30"/>
</g>
<g>
	<path style="fill:#CCCCCC;" d="M256,452h245.855c4.444-9.329,7.548-19.412,9.069-30H256V452z"/>
	<path style="fill:#CCCCCC;" d="M256,90h254.924c-1.521-10.588-4.625-20.671-9.069-30H256V90z"/>
	<rect x="256" y="301" style="fill:#CCCCCC;" width="256" height="30"/>
	<rect x="256" y="181" style="fill:#CCCCCC;" width="256" height="30"/>
</g>
<g>
</g>
<g>
</g>
<g>
</g>
<g>
</g>
<g>
</g>
<g>
</g>
<g>
</g>
<g>
</g>
<g>
</g>
<g>
</g>
<g>
</g>
<g>
</g>
<g>
</g>
<g>
</g>
<g>
</g>
</svg>
