<?xml version="1.0" encoding="iso-8859-1"?>
<!-- Generator: Adobe Illustrator 19.0.0, SVG Export Plug-In . SVG Version: 6.00 Build 0)  -->
<svg version="1.1" id="Capa_1" xmlns="http://www.w3.org/2000/svg" xmlns:xlink="http://www.w3.org/1999/xlink" x="0px" y="0px"
	 viewBox="0 0 512 512" style="enable-background:new 0 0 512 512;" xml:space="preserve">
<path style="fill:#F2F2F2;" d="M407,512H105C47.103,512,0,464.897,0,407V105C0,47.103,47.103,0,105,0h302
	c57.897,0,105,47.103,105,105v302C512,464.897,464.897,512,407,512z"/>
<path style="fill:#E5E5E5;" d="M407,0H256v512h151c57.897,0,105-47.103,105-105V105C512,47.103,464.897,0,407,0z"/>
<g>
	<circle style="fill:#CCCCCC;" cx="281" cy="190" r="15"/>
	<circle style="fill:#CCCCCC;" cx="331" cy="190" r="15"/>
	<circle style="fill:#CCCCCC;" cx="381" cy="190" r="15"/>
	<circle style="fill:#CCCCCC;" cx="431" cy="190" r="15"/>
	<circle style="fill:#CCCCCC;" cx="481" cy="190" r="15"/>
</g>
<g>
	<circle style="fill:#E5E5E5;" cx="231" cy="190" r="15"/>
	<circle style="fill:#E5E5E5;" cx="181" cy="190" r="15"/>
	<circle style="fill:#E5E5E5;" cx="131" cy="190" r="15"/>
	<circle style="fill:#E5E5E5;" cx="81" cy="190" r="15"/>
	<circle style="fill:#E5E5E5;" cx="31" cy="190" r="15"/>
</g>
<path style="fill:#FFDC40;" d="M512,105C512,47.103,464.897,0,407,0H105C47.103,0,0,47.103,0,105v40h512V105z"/>
<path style="fill:#FFAB15;" d="M407,0H256v145h256v-40C512,47.103,464.897,0,407,0z"/>
<g>
	<path style="fill:#E5E5E5;" d="M511.61,416H0.39c0.897,10.515,3.347,20.592,7.125,30h496.97
		C508.263,436.592,510.713,426.515,511.61,416z"/>
	<rect y="296" style="fill:#E5E5E5;" width="512" height="30"/>
</g>
<g>
	<path style="fill:#CCCCCC;" d="M256,446h248.485c3.777-9.408,6.228-19.485,7.125-30H256V446z"/>
	<rect x="256" y="296" style="fill:#CCCCCC;" width="256" height="30"/>
</g>
<g>
</g>
<g>
</g>
<g>
</g>
<g>
</g>
<g>
</g>
<g>
</g>
<g>
</g>
<g>
</g>
<g>
</g>
<g>
</g>
<g>
</g>
<g>
</g>
<g>
</g>
<g>
</g>
<g>
</g>
</svg>
