<?xml version="1.0" encoding="iso-8859-1"?>
<!-- Generator: Adobe Illustrator 19.0.0, SVG Export Plug-In . SVG Version: 6.00 Build 0)  -->
<svg version="1.1" id="Capa_1" xmlns="http://www.w3.org/2000/svg" xmlns:xlink="http://www.w3.org/1999/xlink" x="0px" y="0px"
	 viewBox="0 0 512 512" style="enable-background:new 0 0 512 512;" xml:space="preserve">
<path style="fill:#F2F2F2;" d="M407,512H105C47.103,512,0,464.897,0,407V105C0,47.103,47.103,0,105,0h302
	c57.897,0,105,47.103,105,105v302C512,464.897,464.897,512,407,512z"/>
<path style="fill:#E5E5E5;" d="M407,0H256v512h151c57.897,0,105-47.103,105-105V105C512,47.103,464.897,0,407,0z"/>
<path style="fill:#4DFFE5;" d="M0,190v217c0,57.897,47.103,105,105,105h302c57.897,0,105-47.103,105-105V190H0z"/>
<path style="fill:#39E5D0;" d="M256,190v322h151c57.897,0,105-47.103,105-105V190H256z"/>
<path style="fill:#57565C;" d="M441.633,5.876L496.299,80h-96.724l-59-80h-74.277l59,80h-93.724l-59-80H105
	c-2.199,0-4.38,0.076-6.546,0.21L157.299,80H62.576L28.238,33.44C10.731,52.207,0,77.372,0,105v85h3.576l59-80H157.3l-59,80h74.277
	l59-80h93.724l-59,80h74.276l59-80h96.724l-59,80h37.276L512,139.255V105C512,59.234,482.564,20.219,441.633,5.876z"/>
<path style="fill:#3E3D42;" d="M441.633,5.876L496.299,80h-96.724l-59-80h-74.277l59,80H256v30h69.299l-59,80h74.276l59-80h96.724
	l-59,80h37.276L512,139.255V105C512,59.234,482.564,20.219,441.633,5.876z"/>
<g>
</g>
<g>
</g>
<g>
</g>
<g>
</g>
<g>
</g>
<g>
</g>
<g>
</g>
<g>
</g>
<g>
</g>
<g>
</g>
<g>
</g>
<g>
</g>
<g>
</g>
<g>
</g>
<g>
</g>
</svg>
