<?xml version="1.0" encoding="iso-8859-1"?>
<!-- Generator: Adobe Illustrator 19.0.0, SVG Export Plug-In . SVG Version: 6.00 Build 0)  -->
<svg version="1.1" id="Capa_1" xmlns="http://www.w3.org/2000/svg" xmlns:xlink="http://www.w3.org/1999/xlink" x="0px" y="0px"
	 viewBox="0 0 512 512" style="enable-background:new 0 0 512 512;" xml:space="preserve">
<path style="fill:#F2F2F2;" d="M407,512H105C47.103,512,0,464.897,0,407V105C0,47.103,47.103,0,105,0h302
	c57.897,0,105,47.103,105,105v302C512,464.897,464.897,512,407,512z"/>
<path style="fill:#E5E5E5;" d="M407,0H256v512h151c57.897,0,105-47.103,105-105V105C512,47.103,464.897,0,407,0z"/>
<path style="fill:#57565C;" d="M421,366H91V166h30v-30h30v30h34.188l10-30h121.623l10,30H421V366z"/>
<polygon style="fill:#3E3D42;" points="326.812,166 316.812,136 256,136 256,366 421,366 421,166 "/>
<circle style="fill:#FFDC40;" cx="361" cy="226" r="20"/>
<path style="fill:#F2F2F2;" d="M256,206c-33.084,0-60,26.916-60,60s26.916,60,60,60s60-26.916,60-60S289.084,206,256,206z M256,296
	c-16.542,0-30-13.458-30-30s13.458-30,30-30s30,13.458,30,30S272.542,296,256,296z"/>
<path style="fill:#E5E5E5;" d="M256,206v30c16.542,0,30,13.458,30,30s-13.458,30-30,30v30c33.084,0,60-26.916,60-60
	S289.084,206,256,206z"/>
<g>
</g>
<g>
</g>
<g>
</g>
<g>
</g>
<g>
</g>
<g>
</g>
<g>
</g>
<g>
</g>
<g>
</g>
<g>
</g>
<g>
</g>
<g>
</g>
<g>
</g>
<g>
</g>
<g>
</g>
</svg>
