<?xml version="1.0" encoding="iso-8859-1"?>
<!-- Generator: Adobe Illustrator 19.0.0, SVG Export Plug-In . SVG Version: 6.00 Build 0)  -->
<svg version="1.1" id="Capa_1" xmlns="http://www.w3.org/2000/svg" xmlns:xlink="http://www.w3.org/1999/xlink" x="0px" y="0px"
	 viewBox="0 0 512 512" style="enable-background:new 0 0 512 512;" xml:space="preserve">
<path style="fill:#F2F2F2;" d="M407,512H105C47.103,512,0,464.897,0,407V105C0,47.103,47.103,0,105,0h302
	c57.897,0,105,47.103,105,105v302C512,464.897,464.897,512,407,512z"/>
<path style="fill:#E5E5E5;" d="M407,0H256v512h151c57.897,0,105-47.103,105-105V105C512,47.103,464.897,0,407,0z"/>
<path style="fill:#FFAB15;" d="M258.762,224.343h-5.525c-27.614,0-50-22.386-50-50V115c0-27.614,22.386-50,50-50h5.525
	c27.614,0,50,22.386,50,50v59.343C308.762,201.957,286.377,224.343,258.762,224.343z"/>
<path style="fill:#FF6849;" d="M235.568,231.661l-3.907,3.907c-19.526,19.526-51.184,19.526-70.711,0l-41.962-41.962
	c-19.526-19.526-19.526-51.184,0-70.711l3.907-3.907c19.526-19.526,51.184-19.526,70.711,0l41.962,41.962
	C255.094,180.477,255.094,212.135,235.568,231.661z"/>
<path style="fill:#FF5AD4;" d="M224.343,253.238v5.525c0,27.614-22.386,50-50,50H115c-27.614,0-50-22.386-50-50v-5.525
	c0-27.614,22.386-50,50-50h59.343C201.957,203.238,224.343,225.623,224.343,253.238z"/>
<path style="fill:#CD67E5;" d="M231.661,276.432l3.907,3.907c19.526,19.526,19.526,51.184,0,70.711l-41.962,41.962
	c-19.526,19.526-51.184,19.526-70.711,0l-3.907-3.907c-19.526-19.526-19.526-51.184,0-70.711l41.962-41.962
	C180.477,256.906,212.135,256.906,231.661,276.432z"/>
<path style="fill:#00C3FF;" d="M253.238,287.657h5.525c27.614,0,50,22.386,50,50V397c0,27.614-22.386,50-50,50h-5.525
	c-27.614,0-50-22.386-50-50v-59.343C203.238,310.043,225.623,287.657,253.238,287.657z"/>
<path style="fill:#39E5D0;" d="M276.432,280.339l3.907-3.907c19.526-19.526,51.184-19.526,70.711,0l41.962,41.962
	c19.526,19.526,19.526,51.184,0,70.711l-3.907,3.907c-19.526,19.526-51.184,19.526-70.711,0l-41.962-41.962
	C256.906,331.523,256.906,299.865,276.432,280.339z"/>
<path style="fill:#BEE548;" d="M287.657,258.762v-5.525c0-27.614,22.386-50,50-50H397c27.614,0,50,22.386,50,50v5.525
	c0,27.614-22.386,50-50,50h-59.343C310.043,308.762,287.657,286.377,287.657,258.762z"/>
<path style="fill:#FFDC40;" d="M280.339,235.568l-3.907-3.907c-19.526-19.526-19.526-51.184,0-70.711l41.962-41.962
	c19.526-19.526,51.184-19.526,70.711,0l3.907,3.907c19.526,19.526,19.526,51.184,0,70.711l-41.962,41.962
	C331.523,255.094,299.865,255.094,280.339,235.568z"/>
<path style="fill:#FF9400;" d="M258.762,65H256v159.343h2.762c27.614,0,50-22.386,50-50V115C308.762,87.386,286.377,65,258.762,65z"
	/>
<path style="fill:#00AAF0;" d="M258.762,287.657H256V447h2.762c27.614,0,50-22.386,50-50v-59.343
	C308.762,310.043,286.377,287.657,258.762,287.657z"/>
<path style="fill:#FD4B2D;" d="M203.238,128.62v45.722c0,23.888,16.758,43.852,39.155,48.807
	c12.334-19.342,10.067-45.307-6.825-62.199L203.238,128.62z"/>
<path style="fill:#E08344;" d="M276.432,160.951c-16.892,16.892-19.158,42.857-6.825,62.199
	c22.398-4.955,39.155-24.918,39.155-48.807V128.62L276.432,160.951z"/>
<path style="fill:#82B415;" d="M288.851,242.393c19.342,12.334,45.307,10.067,62.199-6.825l32.331-32.331h-45.722
	C313.769,203.238,293.806,219.995,288.851,242.393z"/>
<path style="fill:#66CC70;" d="M288.851,269.607c4.955,22.398,24.918,39.155,48.807,39.155h45.722l-32.33-32.331
	C334.157,259.54,308.192,257.273,288.851,269.607z"/>
<path style="fill:#107BE5;" d="M308.762,337.657c0-23.888-16.758-43.852-39.155-48.807c-12.334,19.342-10.067,45.307,6.825,62.199
	l32.331,32.331v-45.723H308.762z"/>
<path style="fill:#A056B2;" d="M203.238,337.657v45.722l32.331-32.331c16.892-16.892,19.158-42.857,6.825-62.199
	C219.995,293.806,203.238,313.769,203.238,337.657z"/>
<path style="fill:#FF26BE;" d="M160.951,276.432l-32.33,32.331h45.722c23.889,0,43.852-16.758,48.807-39.155
	C203.808,257.273,177.843,259.54,160.951,276.432z"/>
<path style="fill:#EA596E;" d="M223.149,242.393c-4.955-22.398-24.918-39.155-48.807-39.155H128.62l32.331,32.331
	C177.843,252.46,203.808,254.727,223.149,242.393z"/>
<g>
</g>
<g>
</g>
<g>
</g>
<g>
</g>
<g>
</g>
<g>
</g>
<g>
</g>
<g>
</g>
<g>
</g>
<g>
</g>
<g>
</g>
<g>
</g>
<g>
</g>
<g>
</g>
<g>
</g>
</svg>
