<?xml version="1.0" encoding="iso-8859-1"?>
<!-- Generator: Adobe Illustrator 19.0.0, SVG Export Plug-In . SVG Version: 6.00 Build 0)  -->
<svg version="1.1" id="Capa_1" xmlns="http://www.w3.org/2000/svg" xmlns:xlink="http://www.w3.org/1999/xlink" x="0px" y="0px"
	 viewBox="0 0 512 512" style="enable-background:new 0 0 512 512;" xml:space="preserve">
<path style="fill:#F2F2F2;" d="M407,512H105C47.103,512,0,464.897,0,407V105C0,47.103,47.103,0,105,0h302
	c57.897,0,105,47.103,105,105v302C512,464.897,464.897,512,407,512z"/>
<path style="fill:#E5E5E5;" d="M407,0H256v512h151c57.897,0,105-47.103,105-105V105C512,47.103,464.897,0,407,0z"/>
<path style="fill:#FF6849;" d="M173.034,162.055c10.789,0,16.294-6.252,18.321-9.378l0.26,3.647c0.231,1.68,1.704,5.383,7.381,5.383
	c0.636,0,1.346-0.03,2.127-0.087c0.781-0.058,1.75-0.203,2.909-0.434v-9.899c-2.663-0.141-2.778-2.258-2.778-3.473v-32.127h-11.635
	v28.22c-1.333,2.779-4.982,8.249-11.722,8.249c-5.036,0-7.554-3.502-7.554-10.507v-25.962h-11.635v28.481
	C158.707,155.94,163.743,162.055,173.034,162.055z"/>
<path style="fill:#3E3D42;" d="M315.26,358.401c10.928-16.679,47.216-35.596,51.122-37.771
	c23.843-13.278,43.958-29.016,43.958-56.657c0-32.779-25.542-55.355-70.007-55.355c-35.672,0-63.168,14.074-81.404,30.933
	l28.003,32.236c2.604-3.256,19.719-25.072,45.586-25.072c18.272,0,30.282,9.985,30.282,23.77c0,15.883-24.15,26.752-31.096,30.119
	c-41.153,19.953-74.729,37.319-74.729,97.196h156.947v-39.399H315.26z"/>
<g>
	<path style="fill:#FD4B2D;" d="M284.089,162.055c9.118,0,14.123-5.875,15.803-8.77c0,0-0.76,8.509,7.641,8.509
		c1.273,0,2.923-0.204,4.95-0.608v-9.899c-0.985-0.057-2.692-2.258-2.692-3.473V97.8h-11.635v25.875
		c-1.506-2.605-6.229-8.77-15.369-8.77c-10.789,0-20.318,9.378-20.318,23.531C262.468,150.92,270.731,162.055,284.089,162.055z
		 M286.433,124.804c7.091,0,11.258,7.584,11.722,8.857v10.854c-0.406,1.1-3.727,7.641-11.027,7.641
		c-7.714,0-12.59-6.828-12.59-13.459C274.537,132.665,278.509,124.804,286.433,124.804z"/>
	<path style="fill:#FD4B2D;" d="M337.488,132.966c-10.939,0-19.363,5.664-19.363,14.674c0,7.271,5.745,14.414,15.543,14.414
		c9.4,0,14.644-5.499,16.672-8.162l0.26,2.518c0.575,3.283,2.949,5.384,7.295,5.384c1.446,0,3.154-0.203,5.123-0.608v-9.899
		c-1.769,0-2.779-1.125-2.779-3.473v-14.153c0-11.616-6.893-18.755-20.666-18.755c-6.772,0-13.083,1.94-18.929,5.818l3.56,7.381
		c2.43-1.678,7.807-5.123,14.24-5.123c6.659,0,10.159,3.304,10.159,9.378v2.605C347.097,134.327,343.197,132.966,337.488,132.966z
		 M348.603,146.425c0,1.216-2.415,7.12-11.635,7.12c-4.516,0-7.815-3.009-7.815-6.86c0-4.222,4.418-7.207,10.246-7.207
		c4.143,0,7.814,1.216,9.203,1.737v5.21H348.603z"/>
	<path style="fill:#FD4B2D;" d="M381.513,165.962c-0.521,1.273-1.761,4.949-5.384,4.949c-1.834,0-4.226-0.579-5.21-0.868v10.072
		c1.042,0.347,3.074,0.955,5.818,0.955c10.703,0,14.443-7.671,15.543-10.854l19.103-54.53h-10.941l-10.94,35.427l-12.33-35.427
		h-11.983l17.974,45.499C382.583,163.097,382.034,164.688,381.513,165.962z"/>
</g>
<g>
	<path style="fill:#FF6849;" d="M241.369,114.906c-11.37,0-16.383,6.31-18.061,9.204v-8.423h-10.507v45.499h11.635v-26.57
		c0.404-1.389,3.934-9.465,11.809-9.465c4.365,0,7.207,3.232,7.207,10.506v25.528h11.635v-28.394
		C255.088,123.68,252.43,114.906,241.369,114.906z"/>
	<path style="fill:#FF6849;" d="M128.578,151.114c-11.403,0-20.231-7.033-20.752-7.554l-5.297,10.333
		c3.589,2.548,12.385,7.988,25.875,7.988c10.84,0,22.836-3.951,22.836-18.321c0-13.85-13.534-16.563-19.797-18.235
		c-2.306-0.615-14.067-2.399-14.067-8.77c0-4.709,3.688-6.946,9.812-6.946c9.388,0,16.179,5.674,16.585,6.078l5.297-9.725
		c-2.722-1.852-10.685-6.86-21.534-6.86c-12.441,0-22.489,6.548-22.489,19.363c0,13.054,11.947,15.089,24.052,18.582
		c1.97,0.569,9.378,2.431,9.378,7.728C138.476,149.002,135.177,151.114,128.578,151.114z"/>
</g>
<path style="fill:#57565C;" d="M195.438,211.874h-44.609c-1.089,1.954-30.683,30.933-52.749,30.933v40.702
	c25.684,0,50.796-21.165,52.749-23.77V358.4h-46.237v39.4h132.2v-39.399h-41.354V211.874z"/>
<g>
</g>
<g>
</g>
<g>
</g>
<g>
</g>
<g>
</g>
<g>
</g>
<g>
</g>
<g>
</g>
<g>
</g>
<g>
</g>
<g>
</g>
<g>
</g>
<g>
</g>
<g>
</g>
<g>
</g>
</svg>
