<?xml version="1.0" encoding="iso-8859-1"?>
<!-- Generator: Adobe Illustrator 19.0.0, SVG Export Plug-In . SVG Version: 6.00 Build 0)  -->
<svg version="1.1" id="Layer_1" xmlns="http://www.w3.org/2000/svg" xmlns:xlink="http://www.w3.org/1999/xlink" x="0px" y="0px"
	 viewBox="0 0 512 512" style="enable-background:new 0 0 512 512;" xml:space="preserve">
<circle style="fill:#366796;" cx="256" cy="256" r="256"/>
<path style="fill:#273B7A;" d="M150.637,361.874l146.775,146.775c108.215-17.605,193.645-103.04,211.241-211.259L361.727,150.466
	L150.637,361.874z"/>
<path style="fill:#FF7F4F;" d="M342.052,142.222H169.95c-15.313,0-27.727,12.414-27.727,27.727v172.103
	c0,15.313,12.414,27.727,27.727,27.727h172.103c15.313,0,27.727-12.414,27.727-27.727V169.95
	C369.778,154.636,357.364,142.222,342.052,142.222z"/>
<path style="fill:#E03A00;" d="M142.222,256.576v85.476c0,15.313,12.414,27.726,27.726,27.726H342.05
	c15.313,0,27.727-12.414,27.727-27.726v-85.476L142.222,256.576L142.222,256.576z"/>
<path style="fill:#273B7A;" d="M249.908,251.158l49.833-49.833c6.039-6.039,6.039-15.831,0-21.869l0,0
	c-6.039-6.039-15.831-6.039-21.869,0l-65.61,65.61c-6.039,6.039-6.039,15.831,0,21.869l65.61,65.61
	c6.039,6.039,15.831,6.039,21.869,0l0,0c6.039-6.039,6.039-15.831,0-21.869l-49.833-49.833
	C247.234,258.169,247.234,253.831,249.908,251.158z"/>
<path style="fill:#121149;" d="M249.908,260.842c-1.189-1.19-1.82-2.712-1.951-4.267h-40.198c0.14,3.763,1.629,7.487,4.503,10.361
	l65.61,65.61c6.039,6.039,15.831,6.039,21.869,0s6.039-15.831,0-21.869L249.908,260.842z"/>
<g>
</g>
<g>
</g>
<g>
</g>
<g>
</g>
<g>
</g>
<g>
</g>
<g>
</g>
<g>
</g>
<g>
</g>
<g>
</g>
<g>
</g>
<g>
</g>
<g>
</g>
<g>
</g>
<g>
</g>
</svg>
