<?xml version="1.0" encoding="iso-8859-1"?>
<!-- Generator: Adobe Illustrator 19.0.0, SVG Export Plug-In . SVG Version: 6.00 Build 0)  -->
<svg version="1.1" id="Layer_1" xmlns="http://www.w3.org/2000/svg" xmlns:xlink="http://www.w3.org/1999/xlink" x="0px" y="0px"
	 viewBox="0 0 512 512" style="enable-background:new 0 0 512 512;" xml:space="preserve">
<circle style="fill:#273B7A;" cx="256" cy="256" r="256"/>
<path style="fill:#121149;" d="M156.984,289.509l201.244,201.244c77.695-33.882,135.308-105.191,150.059-191.157l-191.94-191.94
	L156.984,289.509z"/>
<path style="fill:#FFAD9E;" d="M218.255,246.553l97.22-97.22c11.783-11.781,11.781-30.884,0-42.667l0,0
	c-11.783-11.783-30.884-11.783-42.667,0l-128,128c-11.783,11.783-11.781,30.884,0,42.667l128,128
	c11.783,11.783,30.884,11.783,42.667,0l0,0c11.783-11.781,11.781-30.884,0-42.667l-97.22-97.22
	C213.037,260.229,213.037,251.77,218.255,246.553z"/>
<path style="fill:#FF6262;" d="M315.475,362.667l-97.22-97.22c-2.462-2.462-3.748-5.648-3.886-8.873h-78.37
	c0.143,7.528,3.065,15.013,8.809,20.758l128,128c11.781,11.781,30.885,11.781,42.667,0l0,0
	C327.258,393.552,327.258,374.448,315.475,362.667z"/>
<g>
</g>
<g>
</g>
<g>
</g>
<g>
</g>
<g>
</g>
<g>
</g>
<g>
</g>
<g>
</g>
<g>
</g>
<g>
</g>
<g>
</g>
<g>
</g>
<g>
</g>
<g>
</g>
<g>
</g>
</svg>
