<?xml version="1.0" encoding="iso-8859-1"?>
<!-- Generator: Adobe Illustrator 19.0.0, SVG Export Plug-In . SVG Version: 6.00 Build 0)  -->
<svg version="1.1" id="Layer_1" xmlns="http://www.w3.org/2000/svg" xmlns:xlink="http://www.w3.org/1999/xlink" x="0px" y="0px"
	 viewBox="0 0 512 512" style="enable-background:new 0 0 512 512;" xml:space="preserve">
<circle style="fill:#FFEDB5;" cx="256" cy="256" r="256"/>
<path style="fill:#FFC61B;" d="M276.052,511.223c123.485-9.568,222.399-106.749,234.663-229.459L293.064,62.923l-20.399,241.921
	l-112.711,90.281L276.052,511.223z"/>
<path style="fill:#366695;" d="M293.064,62.923h-24.135v228.433c-20.642-13.028-51.107-13.626-78.588,0.741
	c-37.759,19.74-55.567,60.23-39.776,90.438c15.793,30.208,59.204,38.695,96.965,18.954c28.508-14.903,45.634-41.634,45.521-66.839
	l0.012,0.003L293.064,62.923L293.064,62.923z"/>
<path style="fill:#273B7A;" d="M268.929,62.923v228.433c-11.843-7.473-26.921-10.833-42.81-9.647v127.895
	c7.19-1.76,14.398-4.449,21.411-8.114c28.508-14.903,45.633-41.634,45.521-66.839l0.012,0.003V62.923H268.929z"/>
<g>
</g>
<g>
</g>
<g>
</g>
<g>
</g>
<g>
</g>
<g>
</g>
<g>
</g>
<g>
</g>
<g>
</g>
<g>
</g>
<g>
</g>
<g>
</g>
<g>
</g>
<g>
</g>
<g>
</g>
</svg>
