<?xml version="1.0" encoding="iso-8859-1"?>
<!-- Generator: Adobe Illustrator 19.0.0, SVG Export Plug-In . SVG Version: 6.00 Build 0)  -->
<svg version="1.1" id="Layer_1" xmlns="http://www.w3.org/2000/svg" xmlns:xlink="http://www.w3.org/1999/xlink" x="0px" y="0px"
	 viewBox="0 0 512 512" style="enable-background:new 0 0 512 512;" xml:space="preserve">
<circle style="fill:#C2001B;" cx="256" cy="256" r="256"/>
<path style="fill:#940030;" d="M510.581,283.026L290.478,62.923l-18.963,243.645l-55.165-11.326l-53.441,33.096l-5.465,66.907
	l116.177,116.141C397.81,502.939,497.683,405.94,510.581,283.026z"/>
<g>
	<path style="fill:#FEE187;" d="M229.75,281.447L229.75,281.447L229.75,281.447z"/>
	<path style="fill:#FEE187;" d="M290.478,62.923h-24.135v228.431c-10.288-6.492-23.007-9.907-36.592-9.907v27.582
		c14.269,0,25.681,5.532,30.525,14.8c4.961,9.49,1.746,19.901-0.61,25.262c-4.929,11.205-14.951,21.394-27.5,27.955
		c-9.4,4.915-19.501,7.511-29.213,7.511c-14.272,0-25.684-5.532-30.529-14.8c-4.961-9.49-1.746-19.901,0.61-25.262
		c4.929-11.205,14.951-21.394,27.5-27.955c9.399-4.913,19.501-7.511,29.213-7.511l0.003-27.582c-0.002,0-0.003,0-0.003,0
		c-13.671,0-28.208,3.446-41.991,10.65c-37.76,19.74-55.57,60.23-39.777,90.438c10.028,19.182,31.189,29.605,54.974,29.605
		c13.671,0,28.21-3.446,41.991-10.65c28.063-14.67,45.092-40.803,45.511-65.658l0.022,0.007L290.478,62.923L290.478,62.923z"/>
	<path style="fill:#FEE187;" d="M229.75,281.447L229.75,281.447L229.75,281.447z"/>
</g>
<path style="fill:#FFC61B;" d="M266.343,62.923v228.431c-10.288-6.492-23.007-9.907-36.592-9.907v27.582
	c14.269,0,25.681,5.532,30.525,14.8c4.961,9.49,1.746,19.901-0.61,25.262c-4.929,11.205-14.951,21.394-27.5,27.955
	c-0.859,0.448-1.729,0.857-2.598,1.267V407.9c5.173-1.646,10.326-3.77,15.377-6.411c28.063-14.67,45.092-40.803,45.511-65.658
	l0.022,0.007V62.923H266.343z"/>
<path style="fill:#FEE187;" d="M229.748,309.029l0.003-27.582c-0.002,0-0.003,0-0.003,0c-0.059,0-0.121,0.005-0.179,0.005v27.582
	C229.628,309.036,229.688,309.029,229.748,309.029z"/>
<g>
</g>
<g>
</g>
<g>
</g>
<g>
</g>
<g>
</g>
<g>
</g>
<g>
</g>
<g>
</g>
<g>
</g>
<g>
</g>
<g>
</g>
<g>
</g>
<g>
</g>
<g>
</g>
<g>
</g>
</svg>
