<?xml version="1.0" encoding="iso-8859-1"?>
<!-- Generator: Adobe Illustrator 19.0.0, SVG Export Plug-In . SVG Version: 6.00 Build 0)  -->
<svg version="1.1" id="Layer_1" xmlns="http://www.w3.org/2000/svg" xmlns:xlink="http://www.w3.org/1999/xlink" x="0px" y="0px"
	 viewBox="0 0 512 512" style="enable-background:new 0 0 512 512;" xml:space="preserve">
<circle style="fill:#263A7A;" cx="256" cy="256" r="256"/>
<path style="fill:#121149;" d="M150.29,361.57l147.085,147.085c108.244-17.592,193.698-103.05,211.284-211.296L361.605,150.306
	L150.29,361.57z"/>
<path style="fill:#C2001B;" d="M342.052,142.222H169.95c-15.313,0-27.727,12.414-27.727,27.727v172.103
	c0,15.313,12.414,27.726,27.727,27.726h172.103c15.313,0,27.726-12.414,27.726-27.726V169.948
	C369.778,154.636,357.364,142.222,342.052,142.222z"/>
<path style="fill:#940030;" d="M342.052,142.222h-86.626v227.556h86.626c15.313,0,27.726-12.414,27.726-27.726V169.948
	C369.778,154.636,357.364,142.222,342.052,142.222z"/>
<g>
	<path style="fill:#FFEDB5;" d="M190.748,270.172l56.265-97.454c3.994-6.918,13.977-6.918,17.972,0l56.265,97.454
		c3.994,6.918-0.998,15.563-8.985,15.563H199.733C191.747,285.737,186.756,277.09,190.748,270.172z"/>
	<path style="fill:#FFEDB5;" d="M326.68,320.848L326.68,320.848c0,9.237-7.489,16.725-16.725,16.725H202.047
		c-9.237,0-16.725-7.489-16.725-16.725l0,0c0-9.237,7.489-16.725,16.725-16.725h107.908
		C319.191,304.123,326.68,311.611,326.68,320.848z"/>
</g>
<g>
	<path style="fill:#FEE187;" d="M321.252,270.172l-56.265-97.454c-2.107-3.648-5.879-5.353-9.559-5.153v118.17h56.839
		C320.253,285.737,325.244,277.09,321.252,270.172z"/>
	<path style="fill:#FEE187;" d="M309.955,304.123h-54.529v33.452h54.529c9.237,0,16.725-7.489,16.725-16.725
		C326.68,311.611,319.191,304.123,309.955,304.123z"/>
</g>
<g>
</g>
<g>
</g>
<g>
</g>
<g>
</g>
<g>
</g>
<g>
</g>
<g>
</g>
<g>
</g>
<g>
</g>
<g>
</g>
<g>
</g>
<g>
</g>
<g>
</g>
<g>
</g>
<g>
</g>
</svg>
