<?xml version="1.0" encoding="iso-8859-1"?>
<!-- Generator: Adobe Illustrator 19.0.0, SVG Export Plug-In . SVG Version: 6.00 Build 0)  -->
<svg version="1.1" id="Layer_1" xmlns="http://www.w3.org/2000/svg" xmlns:xlink="http://www.w3.org/1999/xlink" x="0px" y="0px"
	 viewBox="0 0 512 512" style="enable-background:new 0 0 512 512;" xml:space="preserve">
<circle style="fill:#273B7A;" cx="256" cy="256" r="256"/>
<path style="fill:#121149;" d="M148.102,369.283l140.914,140.603c114.833-14.786,205.827-105.66,220.808-220.432L370.943,149.876
	L148.102,369.283z"/>
<circle style="fill:#FFEDB5;" cx="256" cy="256" r="156.444"/>
<path style="fill:#FEE187;" d="M412.444,256c0-86.209-69.732-156.126-155.869-156.438v312.875
	C342.712,412.126,412.444,342.209,412.444,256z"/>
<g>
	<path style="fill:#E03A00;" d="M184.198,256.534l62.657-108.527c4.448-7.702,15.565-7.702,20.013,0l62.657,108.527
		c4.448,7.702-1.112,17.332-10.007,17.332H194.203C185.31,273.865,179.75,264.237,184.198,256.534z"/>
	<path style="fill:#E03A00;" d="M335.572,312.118v1.696c0,9.818-7.959,17.777-17.777,17.777H195.932
		c-9.818,0-17.777-7.959-17.777-17.777v-1.696c0-9.818,7.959-17.777,17.777-17.777h121.863
		C327.613,294.34,335.572,302.299,335.572,312.118z"/>
</g>
<g>
	<path style="fill:#940030;" d="M329.526,256.534l-62.657-108.527c-2.279-3.946-6.308-5.856-10.293-5.76v131.617h62.943
		C328.414,273.865,333.974,264.237,329.526,256.534z"/>
	<path style="fill:#940030;" d="M317.793,294.34h-61.218v37.252h61.218c9.818,0,17.779-7.959,17.779-17.779v-1.696
		C335.572,302.299,327.613,294.34,317.793,294.34z"/>
</g>
<g>
</g>
<g>
</g>
<g>
</g>
<g>
</g>
<g>
</g>
<g>
</g>
<g>
</g>
<g>
</g>
<g>
</g>
<g>
</g>
<g>
</g>
<g>
</g>
<g>
</g>
<g>
</g>
<g>
</g>
</svg>
