<?xml version="1.0" encoding="iso-8859-1"?>
<!-- Generator: Adobe Illustrator 19.0.0, SVG Export Plug-In . SVG Version: 6.00 Build 0)  -->
<svg version="1.1" id="Layer_1" xmlns="http://www.w3.org/2000/svg" xmlns:xlink="http://www.w3.org/1999/xlink" x="0px" y="0px"
	 viewBox="0 0 512 512" style="enable-background:new 0 0 512 512;" xml:space="preserve">
<circle style="fill:#71E2EF;" cx="256" cy="256" r="256"/>
<path style="fill:#38C6D9;" d="M290.745,509.643c97.685-13.257,177.857-81.605,208.194-172.735L267.873,106.07L154.296,284.989
	l42.474,42.796l-47.259,40.627L290.745,509.643z"/>
<g>
	<path style="fill:#366695;" d="M151.757,265.061l89.888-155.689c6.38-11.05,22.33-11.05,28.71,0l89.888,155.689
		c6.38,11.05-1.595,24.864-14.355,24.864H166.112C153.352,289.925,145.377,276.113,151.757,265.061z"/>
	<path style="fill:#366695;" d="M368.916,337.075v17.885c0,9.818-7.959,17.777-17.777,17.777H160.863
		c-9.818,0-17.777-7.959-17.777-17.777v-17.885c0-9.818,7.959-17.777,17.777-17.777h190.276
		C360.957,319.298,368.916,327.258,368.916,337.075z"/>
</g>
<g>
	<path style="fill:#263A7A;" d="M360.243,265.061l-89.888-155.689c-3.629-6.285-10.354-8.985-16.653-8.12v188.673h92.186
		C358.648,289.925,366.623,276.113,360.243,265.061z"/>
	<path style="fill:#263A7A;" d="M351.137,319.298H253.7v53.441h97.437c9.818,0,17.777-7.959,17.777-17.779v-17.885
		C368.916,327.258,360.957,319.298,351.137,319.298z"/>
</g>
<g>
</g>
<g>
</g>
<g>
</g>
<g>
</g>
<g>
</g>
<g>
</g>
<g>
</g>
<g>
</g>
<g>
</g>
<g>
</g>
<g>
</g>
<g>
</g>
<g>
</g>
<g>
</g>
<g>
</g>
</svg>
