<?xml version="1.0" encoding="iso-8859-1"?>
<!-- Generator: Adobe Illustrator 19.0.0, SVG Export Plug-In . SVG Version: 6.00 Build 0)  -->
<svg version="1.1" id="Layer_1" xmlns="http://www.w3.org/2000/svg" xmlns:xlink="http://www.w3.org/1999/xlink" x="0px" y="0px"
	 viewBox="0 0 512 512" style="enable-background:new 0 0 512 512;" xml:space="preserve">
<circle style="fill:#FFEDB5;" cx="256" cy="256" r="256"/>
<path style="fill:#FFC61B;" d="M271.486,511.521c105.177-6.277,193.239-76.045,226.394-171.511L397.422,239.552l-59.061,58.335
	L281.774,241.3L138.942,378.977L271.486,511.521z"/>
<g>
	<path style="fill:#386895;" d="M336.115,263.78l-80.063,80.063c-9.702,9.702-9.702,25.435,0,35.137l0,0
		c9.702,9.702,25.435,9.702,35.137,0L396.6,273.568c9.702-9.702,9.702-25.434,0-35.137L291.188,133.02
		c-9.702-9.702-25.435-9.702-35.137,0l0,0c-9.702,9.702-9.702,25.434,0,35.137l80.063,80.063
		C340.413,252.516,340.413,259.484,336.115,263.78z"/>
	<path style="fill:#386895;" d="M218.991,263.78l-80.063,80.063c-9.702,9.702-9.702,25.435,0,35.137l0,0
		c9.702,9.702,25.435,9.702,35.137,0l105.412-105.412c9.702-9.702,9.702-25.434,0-35.137L174.064,133.02
		c-9.702-9.702-25.434-9.702-35.137,0l0,0c-9.702,9.702-9.702,25.434,0,35.137l80.063,80.063
		C223.287,252.516,223.287,259.482,218.991,263.78z"/>
</g>
<g>
	<path style="fill:#273B7A;" d="M336.115,263.78l-80.063,80.063c-9.702,9.702-9.702,25.435,0,35.137l0,0
		c9.704,9.702,25.435,9.702,35.137,0L396.6,273.568c4.851-4.851,7.277-11.211,7.277-17.568h-64.54
		C339.339,258.815,338.263,261.632,336.115,263.78z"/>
	<path style="fill:#273B7A;" d="M218.991,263.78l-80.063,80.063c-9.702,9.702-9.702,25.435,0,35.137l0,0
		c9.702,9.702,25.435,9.702,35.137,0l105.412-105.412c4.851-4.851,7.277-11.211,7.277-17.568h-64.54
		C222.213,258.815,221.139,261.632,218.991,263.78z"/>
</g>
<g>
</g>
<g>
</g>
<g>
</g>
<g>
</g>
<g>
</g>
<g>
</g>
<g>
</g>
<g>
</g>
<g>
</g>
<g>
</g>
<g>
</g>
<g>
</g>
<g>
</g>
<g>
</g>
<g>
</g>
</svg>
