<?xml version="1.0" encoding="iso-8859-1"?>
<!-- Generator: Adobe Illustrator 19.0.0, SVG Export Plug-In . SVG Version: 6.00 Build 0)  -->
<svg version="1.1" id="Layer_1" xmlns="http://www.w3.org/2000/svg" xmlns:xlink="http://www.w3.org/1999/xlink" x="0px" y="0px"
	 viewBox="0 0 512 512" style="enable-background:new 0 0 512 512;" xml:space="preserve">
<circle style="fill:#FFAD9E;" cx="256" cy="256" r="256"/>
<path style="fill:#FF6262;" d="M150.352,361.656l147.001,147.001c108.256-17.586,193.722-103.052,211.304-211.309L361.632,150.323
	L150.352,361.656z"/>
<path style="fill:#366695;" d="M169.948,369.778H342.05c15.313,0,27.726-12.414,27.726-27.726V169.95
	c0-15.313-12.414-27.727-27.726-27.727H169.948c-15.313,0-27.727,12.414-27.727,27.727v172.103
	C142.222,357.364,154.636,369.778,169.948,369.778z"/>
<path style="fill:#273B7A;" d="M142.222,256v86.052c0,15.313,12.414,27.726,27.726,27.726H342.05
	c15.313,0,27.726-12.414,27.726-27.726V256H142.222z"/>
<g>
	<path style="fill:#FFEDB5;" d="M299.156,260.842l-49.833,49.833c-6.039,6.039-6.039,15.831,0,21.869l0,0
		c6.039,6.039,15.831,6.039,21.869,0l65.61-65.61c6.039-6.039,6.039-15.831,0-21.869l-65.61-65.61
		c-6.039-6.039-15.831-6.039-21.869,0l0,0c-6.039,6.039-6.039,15.831,0,21.869l49.833,49.833
		C301.83,253.831,301.83,258.169,299.156,260.842z"/>
	<path style="fill:#FFEDB5;" d="M225.028,260.842l-49.833,49.833c-6.039,6.039-6.039,15.831,0,21.869l0,0
		c6.039,6.039,15.831,6.039,21.869,0l65.61-65.61c6.039-6.039,6.039-15.831,0-21.869l-65.61-65.61
		c-6.039-6.039-15.831-6.039-21.869,0l0,0c-6.039,6.039-6.039,15.831,0,21.869l49.833,49.833
		C227.702,253.831,227.702,258.169,225.028,260.842z"/>
</g>
<g>
	<path style="fill:#FEE187;" d="M299.156,260.842l-49.833,49.833c-6.039,6.039-6.039,15.831,0,21.869l0,0
		c6.039,6.039,15.831,6.039,21.869,0l65.61-65.61c3.02-3.02,4.529-6.977,4.529-10.935h-40.17
		C301.163,257.753,300.494,259.505,299.156,260.842z"/>
	<path style="fill:#FEE187;" d="M225.028,260.842l-49.833,49.833c-6.039,6.039-6.039,15.831,0,21.869l0,0
		c6.039,6.039,15.831,6.039,21.869,0l65.61-65.61c3.02-3.02,4.529-6.977,4.529-10.935h-40.17
		C227.035,257.753,226.366,259.505,225.028,260.842z"/>
</g>
<g>
</g>
<g>
</g>
<g>
</g>
<g>
</g>
<g>
</g>
<g>
</g>
<g>
</g>
<g>
</g>
<g>
</g>
<g>
</g>
<g>
</g>
<g>
</g>
<g>
</g>
<g>
</g>
<g>
</g>
</svg>
