<?xml version="1.0" encoding="iso-8859-1"?>
<!-- Generator: Adobe Illustrator 19.0.0, SVG Export Plug-In . SVG Version: 6.00 Build 0)  -->
<svg version="1.1" id="Layer_1" xmlns="http://www.w3.org/2000/svg" xmlns:xlink="http://www.w3.org/1999/xlink" x="0px" y="0px"
	 viewBox="0 0 512 512" style="enable-background:new 0 0 512 512;" xml:space="preserve">
<circle style="fill:#FF7F4F;" cx="256" cy="256" r="256"/>
<path style="fill:#E03A00;" d="M512,256c0-1.448-0.031-2.889-0.055-4.33L365.642,105.367L259.448,88.781l-7.47,224.108
	l-117.479,81.77l117.288,117.288C253.19,511.969,254.592,512,256,512C397.384,512,512,397.384,512,256z"/>
<path style="fill:#366695;" d="M354.338,170.034c7.416,2.348,14.731-3.596,10.612-8.664c-25.362-31.21-85.299-39.865-96.885-41.269
	v-16.549c35.059-3.786,66.958,3.408,86.356,9.554c7.399,2.345,14.703-3.568,10.631-8.642c-27.82-34.671-96.985-41.541-96.985-41.541
	h-24.135v228.433c-20.642-13.028-51.107-13.626-78.588,0.741c-37.76,19.74-55.568,60.23-39.776,90.438
	c15.793,30.208,59.204,38.695,96.965,18.954c28.305-14.796,45.397-41.253,45.532-66.298h0.002v-60.804
	c35.007-3.781,66.867,3.386,86.271,9.528c7.416,2.348,14.731-3.596,10.612-8.664c-25.362-31.21-85.299-39.865-96.885-41.269v-16.536
	c35.007-3.781,66.867,3.387,86.271,9.528c7.416,2.348,14.731-3.596,10.612-8.664c-25.362-31.21-85.299-39.865-96.885-41.269v-16.536
	C303.075,156.725,334.934,163.892,354.338,170.034z"/>
<path style="fill:#273B7A;" d="M354.338,170.034c7.416,2.348,14.731-3.596,10.612-8.664c-25.362-31.21-85.299-39.865-96.885-41.269
	v-16.549c35.059-3.786,66.958,3.408,86.356,9.554c7.399,2.345,14.703-3.568,10.631-8.642c-27.82-34.671-96.985-41.541-96.985-41.541
	h-24.135v228.433c-12.767-8.058-29.293-11.345-46.545-9.294v128.376c8.421-1.688,16.917-4.648,25.147-8.949
	c28.305-14.796,45.397-41.253,45.532-66.298h0.002v-60.804c35.007-3.781,66.867,3.386,86.271,9.528
	c7.416,2.348,14.731-3.596,10.612-8.664c-25.362-31.21-85.299-39.865-96.885-41.269v-16.536c35.007-3.781,66.867,3.387,86.271,9.528
	c7.416,2.348,14.731-3.596,10.612-8.664c-25.362-31.21-85.299-39.865-96.885-41.269v-16.536
	C303.075,156.725,334.934,163.892,354.338,170.034z"/>
<g>
</g>
<g>
</g>
<g>
</g>
<g>
</g>
<g>
</g>
<g>
</g>
<g>
</g>
<g>
</g>
<g>
</g>
<g>
</g>
<g>
</g>
<g>
</g>
<g>
</g>
<g>
</g>
<g>
</g>
</svg>
