<?xml version="1.0" encoding="iso-8859-1"?>
<!-- Generator: Adobe Illustrator 19.0.0, SVG Export Plug-In . SVG Version: 6.00 Build 0)  -->
<svg version="1.1" id="Layer_1" xmlns="http://www.w3.org/2000/svg" xmlns:xlink="http://www.w3.org/1999/xlink" x="0px" y="0px"
	 viewBox="0 0 512 512" style="enable-background:new 0 0 512 512;" xml:space="preserve">
<circle style="fill:#FFAD9E;" cx="256" cy="256" r="256"/>
<path style="fill:#FF6262;" d="M256.172,511.998C397.477,511.903,512,397.328,512,256c0-3.044-0.072-6.073-0.178-9.092
	L378.127,113.195L272.091,97.401l-8.62,210.316l-115.621,95.958L256.172,511.998z"/>
<path style="fill:#366695;" d="M367.323,178.679c7.416,2.348,14.731-3.596,10.612-8.664c-25.362-31.21-85.299-39.865-96.885-41.269
	v-16.575c35.059-3.786,66.958,3.408,86.356,9.554c7.399,2.345,14.703-3.568,10.631-8.642
	c-27.822-34.669-96.987-41.541-96.987-41.541h-24.135v228.433c-20.642-13.028-51.107-13.626-78.588,0.741
	c-37.759,19.74-55.567,60.23-39.776,90.438c15.793,30.208,59.204,38.695,96.965,18.954c28.263-14.776,45.346-41.177,45.528-66.191
	l0.005,0.002v-117.8c35.007-3.781,66.867,3.386,86.271,9.528c7.416,2.348,14.731-3.596,10.612-8.664
	c-25.362-31.21-85.299-39.865-96.885-41.269v-16.562C316.059,165.371,347.917,172.537,367.323,178.679z"/>
<path style="fill:#273B7A;" d="M367.323,178.679c7.416,2.348,14.731-3.596,10.612-8.664c-25.362-31.21-85.299-39.865-96.885-41.269
	v-16.575c35.059-3.786,66.958,3.408,86.356,9.554c7.399,2.345,14.703-3.568,10.631-8.642
	c-27.822-34.669-96.987-41.541-96.987-41.541h-24.135v228.433c-12.14-7.661-27.684-10.985-44.013-9.533v128.055
	c7.589-1.75,15.21-4.518,22.614-8.39c28.263-14.776,45.346-41.177,45.528-66.191l0.005,0.002v-117.8
	c35.007-3.781,66.867,3.386,86.271,9.528c7.416,2.348,14.731-3.596,10.612-8.664c-25.362-31.21-85.299-39.865-96.885-41.269v-16.562
	C316.059,165.371,347.917,172.537,367.323,178.679z"/>
<g>
</g>
<g>
</g>
<g>
</g>
<g>
</g>
<g>
</g>
<g>
</g>
<g>
</g>
<g>
</g>
<g>
</g>
<g>
</g>
<g>
</g>
<g>
</g>
<g>
</g>
<g>
</g>
<g>
</g>
</svg>
