<?xml version="1.0" encoding="iso-8859-1"?>
<!-- Generator: Adobe Illustrator 19.0.0, SVG Export Plug-In . SVG Version: 6.00 Build 0)  -->
<svg version="1.1" id="Layer_1" xmlns="http://www.w3.org/2000/svg" xmlns:xlink="http://www.w3.org/1999/xlink" x="0px" y="0px"
	 viewBox="0 0 512 512" style="enable-background:new 0 0 512 512;" xml:space="preserve">
<circle style="fill:#366796;" cx="256" cy="256" r="256"/>
<path style="fill:#273B7A;" d="M150.354,361.6l147.049,147.049c108.191-17.596,193.608-102.995,211.235-211.177L361.605,150.438
	L150.354,361.6z"/>
<path style="fill:#FEE187;" d="M169.948,369.778H342.05c15.313,0,27.726-12.414,27.726-27.726V169.95
	c0-15.313-12.414-27.727-27.726-27.727H169.948c-15.313,0-27.727,12.414-27.727,27.727v172.103
	C142.222,357.364,154.636,369.778,169.948,369.778z"/>
<path style="fill:#FFC61B;" d="M142.222,256v86.052c0,15.313,12.414,27.726,27.726,27.726H342.05
	c15.313,0,27.726-12.414,27.726-27.726V256H142.222z"/>
<path style="fill:#273B7A;" d="M262.092,260.842l-49.833,49.833c-6.039,6.039-6.039,15.831,0,21.869l0,0
	c6.039,6.039,15.831,6.039,21.869,0l65.61-65.61c6.039-6.039,6.039-15.831,0-21.869l-65.61-65.61
	c-6.039-6.039-15.831-6.039-21.869,0l0,0c-6.039,6.039-6.039,15.831,0,21.869l49.833,49.833
	C264.766,253.831,264.766,258.169,262.092,260.842z"/>
<path style="fill:#121149;" d="M262.092,260.842l-49.833,49.833c-6.039,6.039-6.039,15.831,0,21.869l0,0
	c6.039,6.039,15.831,6.039,21.869,0l65.61-65.61c3.02-3.02,4.529-6.977,4.529-10.935h-40.17
	C264.099,257.753,263.43,259.505,262.092,260.842z"/>
<g>
</g>
<g>
</g>
<g>
</g>
<g>
</g>
<g>
</g>
<g>
</g>
<g>
</g>
<g>
</g>
<g>
</g>
<g>
</g>
<g>
</g>
<g>
</g>
<g>
</g>
<g>
</g>
<g>
</g>
</svg>
