<?xml version="1.0" encoding="iso-8859-1"?>
<!-- Generator: Adobe Illustrator 19.0.0, SVG Export Plug-In . SVG Version: 6.00 Build 0)  -->
<svg version="1.1" id="Layer_1" xmlns="http://www.w3.org/2000/svg" xmlns:xlink="http://www.w3.org/1999/xlink" x="0px" y="0px"
	 viewBox="0 0 512 512" style="enable-background:new 0 0 512 512;" xml:space="preserve">
<circle style="fill:#273B7A;" cx="256" cy="256" r="256"/>
<path style="fill:#121149;" d="M146.653,367.594l142.3,142.3c114.779-14.751,205.753-105.515,220.836-220.191L369.802,149.716
	L146.653,367.594z"/>
<circle style="fill:#FF5419;" cx="256" cy="256" r="156.444"/>
<path style="fill:#E03A00;" d="M99.562,256.574c0.31,86.137,70.227,155.87,156.438,155.87s156.127-69.732,156.438-155.87
	L99.562,256.574L99.562,256.574z"/>
<path style="fill:#FFEDB5;" d="M269.467,261.222l-53.743,53.741c-6.513,6.513-6.513,17.074,0,23.586l0,0
	c6.513,6.513,17.074,6.513,23.586,0l70.758-70.758c6.513-6.513,6.513-17.074,0-23.587l-70.758-70.758
	c-6.513-6.513-17.074-6.513-23.586,0l0,0c-6.513,6.513-6.513,17.074,0,23.586l53.743,53.743
	C272.351,253.662,272.351,258.338,269.467,261.222z"/>
<path style="fill:#FDE085;" d="M271.574,256.574c-0.131,1.693-0.812,3.353-2.108,4.648l-53.743,53.741
	c-6.513,6.513-6.513,17.074,0,23.586l0,0c6.513,6.513,17.074,6.513,23.586,0l70.758-70.758c3.11-3.11,4.718-7.144,4.858-11.219
	h-43.351V256.574z"/>
<g>
</g>
<g>
</g>
<g>
</g>
<g>
</g>
<g>
</g>
<g>
</g>
<g>
</g>
<g>
</g>
<g>
</g>
<g>
</g>
<g>
</g>
<g>
</g>
<g>
</g>
<g>
</g>
<g>
</g>
</svg>
