<?xml version="1.0" encoding="iso-8859-1"?>
<!-- Generator: Adobe Illustrator 19.0.0, SVG Export Plug-In . SVG Version: 6.00 Build 0)  -->
<svg version="1.1" id="Layer_1" xmlns="http://www.w3.org/2000/svg" xmlns:xlink="http://www.w3.org/1999/xlink" x="0px" y="0px"
	 viewBox="0 0 512 512" style="enable-background:new 0 0 512 512;" xml:space="preserve">
<circle style="fill:#FEE187;" cx="256" cy="256" r="256"/>
<path style="fill:#FFC61B;" d="M150.164,361.412L297.403,508.65C405.516,491.067,490.889,405.78,508.6,297.708L362.596,151.704
	L150.164,361.412z"/>
<path style="fill:#366695;" d="M169.948,369.778H342.05c15.313,0,27.726-12.414,27.726-27.726V169.95
	c0-15.313-12.414-27.727-27.726-27.727H169.948c-15.313,0-27.727,12.414-27.727,27.727v172.103
	C142.222,357.364,154.636,369.778,169.948,369.778z"/>
<path style="fill:#273B7A;" d="M342.05,142.222h-86.626v227.556h86.626c15.313,0,27.726-12.414,27.726-27.726V169.948
	C369.778,154.636,357.364,142.222,342.05,142.222z"/>
<rect x="195.56" y="170.667" style="fill:#FFEDB5;" width="35.556" height="170.667"/>
<rect x="280.893" y="170.667" style="fill:#FEE187;" width="35.556" height="170.667"/>
<g>
</g>
<g>
</g>
<g>
</g>
<g>
</g>
<g>
</g>
<g>
</g>
<g>
</g>
<g>
</g>
<g>
</g>
<g>
</g>
<g>
</g>
<g>
</g>
<g>
</g>
<g>
</g>
<g>
</g>
</svg>
