<?xml version="1.0" encoding="iso-8859-1"?>
<!-- Generator: Adobe Illustrator 19.0.0, SVG Export Plug-In . SVG Version: 6.00 Build 0)  -->
<svg version="1.1" id="Layer_1" xmlns="http://www.w3.org/2000/svg" xmlns:xlink="http://www.w3.org/1999/xlink" x="0px" y="0px"
	 viewBox="0 0 512 512" style="enable-background:new 0 0 512 512;" xml:space="preserve">
<circle style="fill:#FFEDB5;" cx="256" cy="256" r="256"/>
<path style="fill:#FEE187;" d="M512,256c0-16.78-1.633-33.178-4.715-49.057l-86.859-86.859L91.539,391.813l115.488,115.488
	C222.88,510.373,239.249,512,256,512C397.384,512,512,397.384,512,256z"/>
<path style="fill:#366695;" d="M106.739,398.222h298.524c11.821,0,21.404-9.583,21.404-21.404V135.182
	c0-11.821-9.583-21.404-21.404-21.404H106.739c-11.823,0-21.406,9.583-21.406,21.404v241.635
	C85.333,388.639,94.917,398.222,106.739,398.222z"/>
<path style="fill:#273B7A;" d="M85.333,253.702v123.116c0,11.821,9.583,21.406,21.406,21.406h298.524
	c11.821,0,21.406-9.583,21.406-21.406V253.702L85.333,253.702L85.333,253.702z"/>
<rect x="142.222" y="131.017" style="fill:#71E2EF;" width="227.556" height="249.966"/>
<rect x="142.222" y="253.707" style="fill:#38C6D9;" width="227.556" height="127.281"/>
<path style="fill:#263A7A;" d="M212.461,190.748l97.456,56.267c6.918,3.994,6.918,13.977,0,17.972l-97.456,56.265
	c-6.918,3.994-15.563-0.998-15.563-8.985V199.735C196.898,191.747,205.543,186.756,212.461,190.748z"/>
<path style="fill:#121149;" d="M196.896,253.702v58.565c0,7.987,8.647,12.979,15.563,8.985l97.456-56.265
	c4.224-2.438,5.854-7.108,4.92-11.285H196.896z"/>
<g>
	<rect x="98.694" y="142.222" style="fill:#273B7A;" width="28.444" height="56.889"/>
	<rect x="98.694" y="227.556" style="fill:#273B7A;" width="28.444" height="26.146"/>
</g>
<g>
	<rect x="98.694" y="253.707" style="fill:#121149;" width="28.444" height="30.742"/>
	<rect x="98.694" y="312.889" style="fill:#121149;" width="28.444" height="56.889"/>
</g>
<g>
	<rect x="384.862" y="142.222" style="fill:#273B7A;" width="28.444" height="56.889"/>
	<rect x="384.862" y="227.556" style="fill:#273B7A;" width="28.444" height="26.146"/>
</g>
<g>
	<rect x="384.862" y="253.707" style="fill:#121149;" width="28.444" height="30.742"/>
	<rect x="384.862" y="312.889" style="fill:#121149;" width="28.444" height="56.889"/>
</g>
<g>
</g>
<g>
</g>
<g>
</g>
<g>
</g>
<g>
</g>
<g>
</g>
<g>
</g>
<g>
</g>
<g>
</g>
<g>
</g>
<g>
</g>
<g>
</g>
<g>
</g>
<g>
</g>
<g>
</g>
</svg>
