<?xml version="1.0" encoding="iso-8859-1"?>
<!-- Generator: Adobe Illustrator 19.0.0, SVG Export Plug-In . SVG Version: 6.00 Build 0)  -->
<svg version="1.1" id="Layer_1" xmlns="http://www.w3.org/2000/svg" xmlns:xlink="http://www.w3.org/1999/xlink" x="0px" y="0px"
	 viewBox="0 0 512 512" style="enable-background:new 0 0 512 512;" xml:space="preserve">
<circle style="fill:#71E2F0;" cx="256" cy="256" r="256"/>
<path style="fill:#38C6D9;" d="M150.307,361.606l147.051,147.051c108.253-17.587,193.715-103.05,211.299-211.304L361.55,150.247
	L150.307,361.606z"/>
<path style="fill:#FF5419;" d="M342.052,142.222H169.95c-15.313,0-27.727,12.414-27.727,27.727v172.103
	c0,15.313,12.414,27.726,27.727,27.726h172.103c15.313,0,27.726-12.414,27.726-27.726V169.948
	C369.778,154.636,357.366,142.222,342.052,142.222z"/>
<path style="fill:#C2001B;" d="M142.222,256v86.052c0,15.313,12.414,27.726,27.726,27.726H342.05
	c15.313,0,27.726-12.414,27.726-27.726V256H142.222z"/>
<g>
	<path style="fill:#FFEDB5;" d="M212.844,251.158l49.833-49.833c6.039-6.039,6.039-15.831,0-21.869l0,0
		c-6.039-6.039-15.831-6.039-21.869,0l-65.61,65.61c-6.039,6.039-6.039,15.831,0,21.869l65.61,65.61
		c6.039,6.039,15.831,6.039,21.869,0l0,0c6.039-6.039,6.039-15.831,0-21.869l-49.833-49.833
		C210.17,258.169,210.17,253.831,212.844,251.158z"/>
	<path style="fill:#FFEDB5;" d="M286.972,251.158l49.833-49.833c6.039-6.039,6.039-15.831,0-21.869l0,0
		c-6.039-6.039-15.831-6.039-21.869,0l-65.61,65.61c-6.039,6.039-6.039,15.831,0,21.869l65.61,65.61
		c6.039,6.039,15.831,6.039,21.869,0l0,0c6.039-6.039,6.039-15.831,0-21.869l-49.833-49.833
		C284.298,258.169,284.298,253.831,286.972,251.158z"/>
</g>
<g>
	<path style="fill:#FEE187;" d="M212.844,260.842c-1.338-1.338-2.007-3.089-2.007-4.842h-40.17c0,3.958,1.51,7.914,4.529,10.935
		l65.61,65.61c6.039,6.039,15.831,6.039,21.869,0c6.039-6.039,6.039-15.831,0-21.869L212.844,260.842z"/>
	<path style="fill:#FEE187;" d="M286.972,260.842c-1.338-1.338-2.007-3.089-2.007-4.842h-40.17c0,3.958,1.51,7.914,4.529,10.935
		l65.61,65.61c6.039,6.039,15.831,6.039,21.869,0s6.039-15.831,0-21.869L286.972,260.842z"/>
</g>
<g>
</g>
<g>
</g>
<g>
</g>
<g>
</g>
<g>
</g>
<g>
</g>
<g>
</g>
<g>
</g>
<g>
</g>
<g>
</g>
<g>
</g>
<g>
</g>
<g>
</g>
<g>
</g>
<g>
</g>
</svg>
