<?xml version="1.0" encoding="iso-8859-1"?>
<!-- Generator: Adobe Illustrator 19.0.0, SVG Export Plug-In . SVG Version: 6.00 Build 0)  -->
<svg version="1.1" id="Layer_1" xmlns="http://www.w3.org/2000/svg" xmlns:xlink="http://www.w3.org/1999/xlink" x="0px" y="0px"
	 viewBox="0 0 512 512" style="enable-background:new 0 0 512 512;" xml:space="preserve">
<circle style="fill:#FFAD9E;" cx="256" cy="256" r="256"/>
<path style="fill:#FF6262;" d="M145.611,366.852L288.69,509.931c115.243-14.689,206.553-106,221.241-221.244L366.842,145.598
	L145.611,366.852z"/>
<circle style="fill:#FF5419;" cx="256" cy="256" r="156.444"/>
<path style="fill:#E03A00;" d="M99.569,254.85c-0.003,0.384-0.014,0.765-0.014,1.15c0,86.402,70.042,156.444,156.444,156.444
	S412.444,342.402,412.444,256c0-0.384-0.012-0.765-0.014-1.15H99.569z"/>
<g>
	<path style="fill:#FFEDB5;" d="M194.605,249.865l53.743-53.741c6.513-6.513,6.513-17.072,0-23.586l0,0
		c-6.513-6.513-17.074-6.513-23.586,0l-70.758,70.758c-6.513,6.513-6.513,17.074,0,23.587l70.758,70.758
		c6.513,6.513,17.074,6.513,23.586,0l0,0c6.513-6.513,6.513-17.074,0-23.586l-53.743-53.743
		C191.719,257.426,191.719,252.749,194.605,249.865z"/>
	<path style="fill:#FFEDB5;" d="M273.224,249.865l53.743-53.741c6.513-6.513,6.513-17.072,0-23.586l0,0
		c-6.513-6.513-17.074-6.513-23.587,0l-70.758,70.758c-6.513,6.513-6.513,17.072,0,23.587l70.758,70.758
		c6.513,6.513,17.074,6.513,23.587,0l0,0c6.513-6.513,6.513-17.072,0-23.586l-53.743-53.743
		C270.339,257.426,270.339,252.749,273.224,249.865z"/>
</g>
<g>
	<path style="fill:#FEE187;" d="M194.603,260.31c-1.502-1.502-2.203-3.489-2.141-5.458H149.13
		c-0.062,4.346,1.557,8.713,4.873,12.029l70.758,70.758c6.513,6.513,17.074,6.513,23.586,0c6.513-6.513,6.513-17.074,0-23.586
		L194.603,260.31z"/>
	<path style="fill:#FEE187;" d="M273.224,260.31c-1.503-1.503-2.203-3.491-2.141-5.46h-43.334
		c-0.062,4.346,1.557,8.713,4.873,12.029l70.758,70.758c6.513,6.513,17.074,6.513,23.587,0l0,0c6.513-6.513,6.513-17.074,0-23.586
		L273.224,260.31z"/>
</g>
<g>
</g>
<g>
</g>
<g>
</g>
<g>
</g>
<g>
</g>
<g>
</g>
<g>
</g>
<g>
</g>
<g>
</g>
<g>
</g>
<g>
</g>
<g>
</g>
<g>
</g>
<g>
</g>
<g>
</g>
</svg>
