<?xml version="1.0" encoding="iso-8859-1"?>
<!-- Generator: Adobe Illustrator 19.0.0, SVG Export Plug-In . SVG Version: 6.00 Build 0)  -->
<svg version="1.1" id="Layer_1" xmlns="http://www.w3.org/2000/svg" xmlns:xlink="http://www.w3.org/1999/xlink" x="0px" y="0px"
	 viewBox="0 0 512 512" style="enable-background:new 0 0 512 512;" xml:space="preserve">
<circle style="fill:#FF7F4F;" cx="256" cy="256" r="256"/>
<path style="fill:#E03A00;" d="M511.917,262.525L363.744,114.352l-96.827-12.929l-10.919,220.66l-116.608,87.88L240.978,511.55
	c4.972,0.288,9.978,0.45,15.022,0.45C395.204,512,508.456,400.894,511.917,262.525z"/>
<path style="fill:#366695;" d="M271.622,349.181c0-45.037,0-175.421,0-175.421c35.007-3.781,66.867,3.386,86.271,9.528
	c7.416,2.348,14.731-3.596,10.612-8.664c-25.362-31.21-85.299-39.865-96.885-41.269v-15.276c35.059-3.786,66.958,3.406,86.356,9.554
	c7.399,2.345,14.703-3.568,10.631-8.642c-26.567-33.106-91.208-40.863-96.987-41.496V77.45h-24.135v228.433
	c-20.642-13.028-51.107-13.626-78.588,0.741c-37.76,19.74-55.568,60.23-39.776,90.438c15.793,30.208,59.204,38.695,96.965,18.954
	C256.967,399.874,271.622,376.303,271.622,349.181z"/>
<path style="fill:#273B7A;" d="M271.622,133.353v-15.276c35.059-3.786,66.958,3.406,86.356,9.554
	c7.399,2.345,14.703-3.568,10.631-8.642c-26.567-33.106-91.208-40.863-96.987-41.496v-0.045h-24.135v228.433
	c-12.652-7.983-28.996-11.274-46.078-9.337v128.317c8.268-1.703,16.603-4.624,24.679-8.845
	c30.879-16.143,45.534-39.714,45.534-66.836c0-45.037,0-175.421,0-175.421c35.009-3.781,66.867,3.386,86.271,9.528
	c7.416,2.348,14.731-3.596,10.612-8.664C343.145,143.412,283.208,134.758,271.622,133.353z"/>
<g>
</g>
<g>
</g>
<g>
</g>
<g>
</g>
<g>
</g>
<g>
</g>
<g>
</g>
<g>
</g>
<g>
</g>
<g>
</g>
<g>
</g>
<g>
</g>
<g>
</g>
<g>
</g>
<g>
</g>
</svg>
