<?xml version="1.0" encoding="iso-8859-1"?>
<!-- Generator: Adobe Illustrator 19.0.0, SVG Export Plug-In . SVG Version: 6.00 Build 0)  -->
<svg version="1.1" id="Layer_1" xmlns="http://www.w3.org/2000/svg" xmlns:xlink="http://www.w3.org/1999/xlink" x="0px" y="0px"
	 viewBox="0 0 512 512" style="enable-background:new 0 0 512 512;" xml:space="preserve">
<circle style="fill:#FFC61B;" cx="256" cy="256" r="256"/>
<path style="fill:#D48B07;" d="M149.838,370.074l139.733,139.733C404.301,494.778,495.123,403.79,509.89,288.98L369.9,148.989
	L149.838,370.074z"/>
<circle style="fill:#FFEDB5;" cx="256" cy="256" r="156.444"/>
<path style="fill:#FEE187;" d="M256,99.556c-0.191,0-0.383,0.007-0.574,0.007v312.875c0.191,0,0.383,0.007,0.574,0.007
	c86.402,0,156.444-70.042,156.444-156.444S342.402,99.556,256,99.556z"/>
<path style="fill:#366695;" d="M306.495,177.778H205.503c-15.313,0-27.726,12.414-27.726,27.727v100.992
	c0,15.313,12.414,27.726,27.727,27.726h100.992c15.313,0,27.726-12.414,27.726-27.727V205.503
	C334.222,190.192,321.808,177.778,306.495,177.778z"/>
<path style="fill:#273B7A;" d="M306.497,177.778h-51.071v156.444h51.071c15.313,0,27.726-12.414,27.726-27.726V205.505
	C334.222,190.192,321.808,177.778,306.497,177.778z"/>
<g>
</g>
<g>
</g>
<g>
</g>
<g>
</g>
<g>
</g>
<g>
</g>
<g>
</g>
<g>
</g>
<g>
</g>
<g>
</g>
<g>
</g>
<g>
</g>
<g>
</g>
<g>
</g>
<g>
</g>
</svg>
