<?xml version="1.0" encoding="iso-8859-1"?>
<!-- Generator: Adobe Illustrator 19.0.0, SVG Export Plug-In . SVG Version: 6.00 Build 0)  -->
<svg version="1.1" id="Layer_1" xmlns="http://www.w3.org/2000/svg" xmlns:xlink="http://www.w3.org/1999/xlink" x="0px" y="0px"
	 viewBox="0 0 512 512" style="enable-background:new 0 0 512 512;" xml:space="preserve">
<circle style="fill:#FF7F4F;" cx="256" cy="256" r="256"/>
<path style="fill:#E03A00;" d="M150.28,361.591l147.068,147.068c108.253-17.582,193.719-103.041,211.308-211.291L362.305,151.018
	L150.28,361.591z"/>
<path style="fill:#273B7A;" d="M342.052,142.222H169.95c-15.313,0-27.727,12.414-27.727,27.727v172.103
	c0,15.313,12.414,27.726,27.727,27.726h172.103c15.313,0,27.726-12.414,27.726-27.726V169.948
	C369.778,154.636,357.366,142.222,342.052,142.222z"/>
<path style="fill:#121149;" d="M342.052,142.222h-87.776v227.556h87.776c15.313,0,27.726-12.414,27.726-27.726V169.948
	C369.778,154.636,357.366,142.222,342.052,142.222z"/>
<g>
</g>
<g>
</g>
<g>
</g>
<g>
</g>
<g>
</g>
<g>
</g>
<g>
</g>
<g>
</g>
<g>
</g>
<g>
</g>
<g>
</g>
<g>
</g>
<g>
</g>
<g>
</g>
<g>
</g>
</svg>
