<?xml version="1.0" encoding="iso-8859-1"?>
<!-- Generator: Adobe Illustrator 19.0.0, SVG Export Plug-In . SVG Version: 6.00 Build 0)  -->
<svg version="1.1" id="Layer_1" xmlns="http://www.w3.org/2000/svg" xmlns:xlink="http://www.w3.org/1999/xlink" x="0px" y="0px"
	 viewBox="0 0 512 512" style="enable-background:new 0 0 512 512;" xml:space="preserve">
<circle style="fill:#E03A00;" cx="256" cy="256" r="256"/>
<path style="fill:#940030;" d="M150.499,361.741l146.908,146.908C405.601,491.051,491.02,405.645,508.64,297.456L362.946,151.762
	L150.499,361.741z"/>
<path style="fill:#FEE187;" d="M169.95,369.778h172.103c15.313,0,27.726-12.414,27.726-27.726V169.95
	c0-15.313-12.414-27.727-27.726-27.727H169.95c-15.313,0-27.727,12.414-27.727,27.727v172.103
	C142.222,357.364,154.636,369.778,169.95,369.778z"/>
<path style="fill:#FFC61B;" d="M342.052,142.222H256v227.556h86.052c15.313,0,27.726-12.414,27.726-27.726V169.948
	C369.778,154.636,357.366,142.222,342.052,142.222z"/>
<circle style="fill:#FF5419;" cx="256" cy="256" r="71.111"/>
<path style="fill:#E03A00;" d="M327.111,256c0-39.274-31.837-71.111-71.111-71.111v142.222
	C295.274,327.111,327.111,295.274,327.111,256z"/>
<g>
</g>
<g>
</g>
<g>
</g>
<g>
</g>
<g>
</g>
<g>
</g>
<g>
</g>
<g>
</g>
<g>
</g>
<g>
</g>
<g>
</g>
<g>
</g>
<g>
</g>
<g>
</g>
<g>
</g>
</svg>
