<?xml version="1.0" encoding="iso-8859-1"?>
<!-- Generator: Adobe Illustrator 19.0.0, SVG Export Plug-In . SVG Version: 6.00 Build 0)  -->
<svg version="1.1" id="Capa_1" xmlns="http://www.w3.org/2000/svg" xmlns:xlink="http://www.w3.org/1999/xlink" x="0px" y="0px"
	 viewBox="0 0 384 384" style="enable-background:new 0 0 384 384;" xml:space="preserve">
<circle style="fill:#E05B49;" cx="192" cy="192" r="192"/>
<path style="opacity:0.1;enable-background:new    ;" d="M254.274,83.691l-0.26-0.261l-0.023,0.026
	c-1.915-1.444-4.533-1.937-6.99-0.816l-114.8,51.84v0.04H89c-3.88,0-7,3.12-7,6.96v101.04c0,1.662,0.609,3.169,1.587,4.366
	l-0.01,0.008l0.099,0.099c0.245,0.289,0.51,0.554,0.8,0.8L218.782,382.1c86.738-12.112,154.91-82.135,164.137-169.764L255.173,84.59
	C254.901,84.259,254.6,83.965,254.274,83.691z"/>
<path style="fill:#E1E6E9;" d="M256.756,146.757V88.922c0-5.021-5.184-8.369-9.761-6.301L132.199,134.48V192h124.558V146.757z"/>
<path style="fill:#D5D6DB;" d="M132.199,192v57.519l114.796,51.86c4.577,2.067,9.761-1.28,9.761-6.302v-57.835V192H132.199z"/>
<path style="fill:#64798A;" d="M88.984,134.512c-3.857,0-6.984,3.127-6.984,6.984V192h50.198v-57.488H88.984z"/>
<path style="fill:#3A556A;" d="M82,242.502c0,3.858,3.127,6.984,6.984,6.984h43.214V192H82V242.502z"/>
<path style="fill:#64798A;" d="M256.756,146.757V192H302C302,167.012,281.744,146.757,256.756,146.757z"/>
<path style="fill:#3A556A;" d="M256.756,237.242C281.744,237.242,302,216.986,302,192h-45.243V237.242z"/>
<g>
</g>
<g>
</g>
<g>
</g>
<g>
</g>
<g>
</g>
<g>
</g>
<g>
</g>
<g>
</g>
<g>
</g>
<g>
</g>
<g>
</g>
<g>
</g>
<g>
</g>
<g>
</g>
<g>
</g>
</svg>
