<?xml version="1.0" encoding="iso-8859-1"?>
<!-- Generator: Adobe Illustrator 19.0.0, SVG Export Plug-In . SVG Version: 6.00 Build 0)  -->
<svg version="1.1" id="Layer_1" xmlns="http://www.w3.org/2000/svg" xmlns:xlink="http://www.w3.org/1999/xlink" x="0px" y="0px"
	 viewBox="0 0 512 512" style="enable-background:new 0 0 512 512;" xml:space="preserve">
<circle style="fill:#C2001B;" cx="256" cy="256" r="256"/>
<path style="fill:#940030;" d="M502.817,324.13l-128.79-128.79l-111.921-35.666h-62.995l-39.422,164.092l177.326,175.135
	C417.475,472.081,480.156,406.404,502.817,324.13z"/>
<path style="fill:#FFEDB5;" d="M247.33,142.141c-81.898-0.271-137.814,54.174-124.476,119.117
	c12.803,62.345,84.973,110.211,160.851,109.144c75.012-1.055,129.733-49.683,122.749-110.756
	C399.188,196.084,328.223,142.408,247.33,142.141z M280.3,349.036c-38.11,0.474-76.316-38.371-85.394-88.186
	c-9.378-51.46,15.806-94.392,56.308-94.334c40.255,0.059,78.519,42.615,85.48,93.529C343.436,309.346,318.19,348.563,280.3,349.036z
	"/>
<path style="fill:#FEE187;" d="M406.456,259.646c-7.042-61.585-73.878-113.888-151.604-117.326v24.317
	c38.898,2.513,75.093,44.027,81.844,93.405c6.74,49.304-18.504,88.523-56.394,88.993c-8.59,0.107-17.184-1.801-25.45-5.365v24.795
	c9.48,1.396,19.135,2.074,28.855,1.938C358.719,369.347,413.439,320.719,406.456,259.646z"/>
<g>
</g>
<g>
</g>
<g>
</g>
<g>
</g>
<g>
</g>
<g>
</g>
<g>
</g>
<g>
</g>
<g>
</g>
<g>
</g>
<g>
</g>
<g>
</g>
<g>
</g>
<g>
</g>
<g>
</g>
</svg>
